<svg width="289" height="70" viewBox="0 0 289 70" fill="none" xmlns="http://www.w3.org/2000/svg">
<path d="M288.162 2.45471C287.592 15.5229 282.909 53.8294 241.95 69.9764C241.675 69.9774 241.302 70.1017 241.056 69.77C240.376 68.8508 239.256 66.7635 239.053 66.3535C238.92 66.0855 238.534 65.8292 240.146 64.6726C241.517 63.6895 250.469 59.4616 258.64 48.396C266.709 37.4674 271.463 21.2398 271.492 9.57103C259.359 9.78937 235.288 9.77007 231.096 9.57541C230.828 9.48962 230.203 9.50841 230.199 8.25104C230.125 6.92342 230.249 2.56021 230.245 1.47327C230.241 0.494757 230.819 0.00390313 231.82 0.000332109C232.781 -0.00309946 284.459 0.0228 286.849 0.0138675C288.36 0.00821901 288.174 2.18794 288.162 2.45471Z" fill="white"/>
<path d="M102.131 0.0130811C115.012 0.583599 152.772 5.26612 168.688 46.2252C168.689 46.5 168.812 46.8734 168.485 47.1189C167.579 47.7993 165.521 48.9195 165.117 49.1228C164.853 49.2557 164.6 49.6419 163.46 48.0293C162.491 46.6587 158.323 37.7068 147.416 29.5358C136.643 21.466 120.648 16.7124 109.146 16.6833C109.361 28.8168 109.342 52.8876 109.15 57.0789C109.065 57.3476 109.084 57.9726 107.845 57.9766C106.536 58.0501 102.235 57.9268 101.164 57.9308C100.199 57.9345 99.7152 57.356 99.7117 56.3557C99.7083 55.394 99.7338 3.71638 99.725 1.32667C99.7194 -0.184462 101.868 0.00143457 102.131 0.0130811Z" fill="white"/>
<path d="M179.286 7.92584C178.801 7.57554 166.354 0.443933 165.758 0.129567C164.864 -0.341995 164.759 0.672318 164.695 1.74181C164.564 3.93993 165.748 27.1447 179.172 45.3735C192.369 63.2949 210.114 69.3461 211.008 69.8177C211.604 70.1322 211.934 69.6448 212.153 69.1934C212.372 68.7421 213.429 66.3709 213.721 65.7691C214.013 65.1673 213.789 65.0492 213.417 64.8528C212.672 64.4599 197.93 57.8177 188.689 38.4889C181.824 24.13 181.291 12.8567 181.089 10.7664C180.926 9.0861 180.134 8.53875 179.286 7.92584Z" fill="white"/>
<path d="M194.158 8.82584C193.537 8.80663 193.225 9.34011 193.28 10.0378C193.157 12.4571 193.227 16.7648 193.27 17.3232C193.325 18.0212 193.808 18.361 194.561 18.3843C195.329 18.408 221.966 18.7299 222.704 18.6183C223.476 18.5016 223.578 17.9076 223.593 17.3911C223.607 16.9275 223.772 10.5893 223.702 10.1582C223.631 9.72702 223.602 9.22464 222.779 9.2185C222.395 9.21564 194.779 8.84505 194.158 8.82584Z" fill="white"/>
<path d="M193.888 24.9079C193.267 24.8887 192.956 25.4221 193.01 26.1198C192.887 28.5391 192.957 32.8468 193.001 33.4052C193.056 34.1032 193.539 34.443 194.291 34.4663C195.059 34.4901 221.697 34.8119 222.434 34.7003C223.206 34.5836 223.308 33.9897 223.324 33.4731C223.338 33.0095 223.503 26.6714 223.432 26.2402C223.361 25.809 223.332 25.3067 222.509 25.3005C222.125 25.2977 194.509 24.9271 193.888 24.9079Z" fill="white"/>
<path d="M73.1447 38.6622C74.1841 37.6592 75.6826 38.0704 76.8232 38.7418C80.1575 40.7043 82.224 42.1228 84.8102 45.2921C86.5991 47.4843 88.4083 51.5276 87.9883 56.5633C87.9032 57.5848 86.8396 58 85.0245 58C82.0598 58 73.3473 57.8391 71.8402 57.8391C70.3788 57.8391 70.6897 56.3681 70.6897 55.383C70.6897 54.3009 70.6897 45.6129 70.6897 42.6379C70.6897 41.5091 71.0918 41.1734 71.3993 40.7075C71.8341 40.0487 72.0767 39.6928 73.1447 38.6622Z" fill="white"/>
<path d="M58.1175 34.9032C58.7384 34.9119 59.0411 34.3754 58.9749 33.6814C59.057 31.2699 58.9153 26.9808 58.8622 26.4254C58.7958 25.7311 58.3072 25.4008 57.5543 25.3901C56.7864 25.3793 30.1499 25.5036 29.4144 25.627C28.6446 25.7562 28.5525 26.3494 28.5457 26.8642C28.5396 27.3261 28.4808 33.6414 28.5587 34.0696C28.6366 34.4978 28.6744 34.9977 29.4973 34.9901C29.8812 34.9865 57.4966 34.8944 58.1175 34.9032Z" fill="white"/>
<path d="M0.0133042 2.45468C0.593658 15.5228 5.3569 53.8294 47.0221 69.9764C47.3017 69.9773 47.6816 70.1017 47.9313 69.77C48.6234 68.8508 49.7629 66.7634 49.9697 66.3534C50.1049 66.0854 50.4978 65.8292 48.8574 64.6726C47.4631 63.6895 38.3569 59.4615 30.0451 48.3959C21.8361 37.4674 17.0005 21.2398 16.9709 9.571C29.3137 9.78935 53.7994 9.77005 58.0631 9.57539C58.3363 9.48961 58.9721 9.50839 58.9761 8.25102C59.0509 6.9234 58.9255 2.56019 58.9297 1.47325C58.9334 0.494741 58.3449 0.00388669 57.3274 0.000315502C56.349 -0.00311624 3.78045 0.0227741 1.34954 0.0138412C-0.187644 0.00819243 0.00145681 2.18792 0.0133042 2.45468Z" fill="white"/>
</svg>
