<svg width="272" height="71" viewBox="0 0 272 71" fill="none" xmlns="http://www.w3.org/2000/svg">
<path d="M57.3271 0.000366211C58.3447 0.0039374 58.9334 0.495487 58.9297 1.474C58.9256 2.56128 59.0513 6.92356 58.9766 8.25134C58.9726 9.5079 58.337 9.48997 58.0635 9.57556C53.7998 9.77022 29.3134 9.79 16.9707 9.57166C17.0003 21.2404 21.836 37.4683 30.0449 48.3969C38.3567 59.4623 47.4631 63.6901 48.8574 64.6732C50.4975 65.8296 50.1049 66.0859 49.9697 66.3539C49.7629 66.7639 48.6237 68.8517 47.9316 69.7709C47.682 70.1024 47.3019 69.978 47.0225 69.9769C5.35752 53.83 0.594079 15.5238 0.0136719 2.45544C0.00182454 2.18868 -0.187575 0.00838931 1.34961 0.0140381C3.78216 0.022969 56.3425 -0.00306164 57.3271 0.000366211ZM57.5537 25.391C58.3067 25.4016 58.7959 25.7319 58.8623 26.4261C58.9155 26.9827 59.0567 31.2709 58.9746 33.682C59.0408 34.376 58.7381 34.9125 58.1172 34.9037C57.4904 34.8949 29.881 34.987 29.4971 34.9906C28.6744 34.9982 28.6365 34.4979 28.5586 34.0697C28.4808 33.638 28.5398 27.3264 28.5459 26.8646C28.5527 26.3499 28.6445 25.7565 29.4141 25.6273C30.1495 25.5039 56.7754 25.3802 57.5537 25.391Z" fill="#DFDFDF" fill-opacity="0.8"/>
<path d="M74.0176 0.441912C87.0858 1.01243 125.392 5.69495 141.539 46.654C141.54 46.9288 141.665 47.3023 141.333 47.5478C140.414 48.2281 138.326 49.3483 137.916 49.5516C137.648 49.6845 137.392 50.0707 136.235 48.4582C135.252 47.0875 131.025 38.1356 119.959 29.9647C109.03 21.8949 92.8027 17.1412 81.1339 17.1121C81.3523 29.2457 81.3461 65.0068 81.1515 69.1981C81.0657 69.4668 81.0845 70.0918 79.8271 70.0957C78.4995 70.1693 74.1363 70.046 73.0493 70.05C72.0708 70.0537 71.58 69.4752 71.5764 68.4749C71.573 67.5131 71.5857 4.14521 71.5768 1.7555C71.5711 0.244369 73.7509 0.430265 74.0176 0.441912Z" fill="#DFDFDF" fill-opacity="0.8"/>
<path d="M271.264 2.46006C270.693 15.5282 266.01 53.8348 225.051 69.9818C224.777 69.9827 224.403 70.1071 224.158 69.7754C223.477 68.8562 222.357 66.7688 222.154 66.3588C222.021 66.0908 221.635 65.8345 223.247 64.678C224.618 63.6949 233.57 59.4669 241.741 48.4013C249.811 37.4727 254.564 21.2451 254.593 9.57638C242.46 9.79472 218.389 9.77542 214.198 9.58076C213.929 9.49497 213.304 9.51376 213.3 8.25639C213.227 6.92877 213.35 2.56556 213.346 1.47862C213.342 0.500107 213.921 0.00925262 214.921 0.0056816C215.883 0.00225003 267.56 0.0281495 269.95 0.019217C271.461 0.0135685 271.275 2.19329 271.264 2.46006Z" fill="#DFDFDF" fill-opacity="0.8"/>
<path d="M156.078 8.20931C155.595 7.86053 143.202 0.759741 142.609 0.446734C141.719 -0.022789 141.614 0.98714 141.55 2.05201C141.42 4.24063 142.599 27.3451 155.965 45.4951C169.105 63.3391 186.772 69.3641 187.663 69.8336C188.256 70.1468 188.585 69.6615 188.803 69.2121C189.021 68.7627 190.073 66.4017 190.364 65.8025C190.655 65.2034 190.432 65.0857 190.061 64.8902C189.32 64.499 174.641 57.8855 165.44 38.6403C158.605 24.3435 158.074 13.1188 157.873 11.0375C157.711 9.36455 156.923 8.81957 156.078 8.20931Z" fill="#DFDFDF" fill-opacity="0.8"/>
<path d="M170.886 9.10536C170.268 9.08623 169.957 9.6174 170.011 10.3121C169.889 12.7209 169.958 17.01 170.002 17.566C170.057 18.2609 170.537 18.5993 171.287 18.6225C172.051 18.6461 198.574 18.9666 199.308 18.8555C200.077 18.7393 200.179 18.1479 200.194 17.6335C200.208 17.172 200.372 10.8612 200.302 10.4319C200.231 10.0026 200.202 9.50244 199.383 9.49633C199 9.49347 171.504 9.12449 170.886 9.10536Z" fill="#DFDFDF" fill-opacity="0.8"/>
<path d="M170.617 25.1179C169.999 25.0988 169.689 25.63 169.743 26.3247C169.621 28.7335 169.69 33.0226 169.734 33.5786C169.788 34.2735 170.269 34.6119 171.019 34.6351C171.783 34.6587 198.306 34.9791 199.04 34.8681C199.809 34.7518 199.91 34.1605 199.926 33.6461C199.939 33.1846 200.104 26.8738 200.033 26.4445C199.963 26.0152 199.934 25.515 199.114 25.5089C198.732 25.506 171.235 25.1371 170.617 25.1179Z" fill="#DFDFDF" fill-opacity="0.8"/>
</svg>
