<svg width="289" height="118" viewBox="0 0 289 118" fill="none" xmlns="http://www.w3.org/2000/svg">
<path d="M277.128 88.6881H283.883V94.4359H288.94V99.5713H283.883V108.795C283.883 110.244 284.008 111.1 284.259 111.363C284.522 111.627 285.141 111.758 286.115 111.758H288.94V117.012H284.377C281.783 117.012 279.926 116.604 278.807 115.788C277.688 114.958 277.128 113.615 277.128 111.758V99.5713H273.948V94.4359H277.128V88.6881Z" fill="url(#paint0_linear_6_53)"/>
<path d="M248.463 102.554L259.366 102.574C259.247 101.217 258.701 100.151 257.726 99.3738C256.752 98.5969 255.481 98.2085 253.914 98.2085C252.36 98.2085 251.09 98.6035 250.102 99.3936C249.128 100.17 248.581 101.224 248.463 102.554ZM266.496 109.171C265.601 111.673 264.047 113.608 261.835 114.978C259.623 116.334 256.93 117.012 253.756 117.012C249.727 117.012 246.534 115.965 244.177 113.872C241.833 111.765 240.661 108.914 240.661 105.319C240.661 101.724 241.833 98.8866 244.177 96.8061C246.52 94.7124 249.714 93.6655 253.756 93.6655C257.957 93.6655 261.189 94.7519 263.454 96.9246C265.732 99.0841 266.871 102.165 266.871 106.168V107.097H248.265C248.305 108.69 248.818 109.961 249.806 110.909C250.807 111.844 252.123 112.311 253.756 112.311C255.033 112.311 256.133 112.041 257.055 111.501C257.977 110.948 258.642 110.171 259.05 109.171H266.496Z" fill="url(#paint1_linear_6_53)"/>
<path d="M207.67 116.242V94.4358H214.425V97.7146C215.623 96.4374 216.933 95.4761 218.355 94.8309C219.778 94.1857 221.298 93.863 222.918 93.863C224.748 93.863 226.355 94.1659 227.738 94.7716C229.12 95.3773 230.187 96.2398 230.937 97.3591C231.398 98.057 231.727 98.88 231.925 99.8281C232.122 100.763 232.221 102.231 232.221 104.233V116.242H225.466V105.675C225.466 103.239 225.111 101.566 224.399 100.658C223.702 99.7491 222.484 99.2948 220.745 99.2948C218.783 99.2948 217.236 99.8478 216.104 100.954C214.984 102.047 214.425 103.555 214.425 105.477V116.242H207.67Z" fill="url(#paint2_linear_6_53)"/>
<path d="M189.255 116.242V109.21H196.86V116.242H189.255Z" fill="url(#paint3_linear_6_53)"/>
<path d="M180.006 107.373C179.782 110.244 178.452 112.568 176.016 114.346C173.58 116.123 170.472 117.012 166.693 117.012C162.69 117.012 159.471 115.946 157.035 113.812C154.612 111.679 153.4 108.848 153.4 105.319C153.4 101.711 154.625 98.8669 157.074 96.7863C159.537 94.7058 162.908 93.6655 167.187 93.6655C170.887 93.6655 173.817 94.4556 175.977 96.0358C178.136 97.6027 179.4 99.861 179.769 102.811H172.323C172.138 101.547 171.565 100.579 170.604 99.9071C169.656 99.2224 168.379 98.88 166.772 98.88C164.942 98.88 163.474 99.4726 162.368 100.658C161.262 101.83 160.708 103.397 160.708 105.359C160.708 107.321 161.255 108.888 162.348 110.06C163.454 111.218 164.929 111.798 166.772 111.798C168.326 111.798 169.617 111.39 170.644 110.573C171.684 109.744 172.257 108.677 172.362 107.373H180.006Z" fill="url(#paint4_linear_6_53)"/>
<path d="M144.447 92.2631H137.732V87.0289H144.447V92.2631ZM137.732 116.242V94.4359H144.447V116.242H137.732Z" fill="url(#paint5_linear_6_53)"/>
<path d="M121.609 116.242H114.853V94.4359H121.609V97.3196C122.636 96.0818 123.689 95.1667 124.769 94.5741C125.862 93.9684 127.007 93.6655 128.206 93.6655C128.443 93.6655 128.897 93.705 129.569 93.784C129.806 93.7972 129.983 93.8104 130.102 93.8235V99.5713C129.878 99.545 129.621 99.5252 129.332 99.5121C129.042 99.4989 128.588 99.4923 127.969 99.4923C125.994 99.4923 124.44 100.111 123.307 101.349C122.175 102.587 121.609 104.299 121.609 106.484V116.242Z" fill="url(#paint6_linear_6_53)"/>
<path d="M98.0391 105.596C98.0391 103.726 97.4597 102.231 96.3009 101.112C95.1421 99.9795 93.5949 99.4133 91.6592 99.4133C89.6972 99.4133 88.1368 99.9729 86.978 101.092C85.8324 102.211 85.2596 103.726 85.2596 105.635C85.2596 107.531 85.839 109.039 86.9978 110.158C88.1566 111.278 89.7104 111.837 91.6592 111.837C93.5949 111.837 95.1421 111.271 96.3009 110.139C97.4597 108.993 98.0391 107.479 98.0391 105.596ZM98.0391 96.9838V87.0289H104.794V116.242H98.0391V114.227C97.1041 115.162 96.0046 115.853 94.7405 116.301C93.4896 116.749 92.0148 116.973 90.3161 116.973C86.6686 116.973 83.6992 115.913 81.408 113.793C79.13 111.673 77.991 108.927 77.991 105.556C77.991 102.159 79.1366 99.4133 81.4278 97.3196C83.719 95.2128 86.7213 94.1593 90.4346 94.1593C92.0938 94.1593 93.5554 94.3963 94.8195 94.8704C96.0836 95.3313 97.1568 96.0357 98.0391 96.9838Z" fill="url(#paint7_linear_6_53)"/>
<path d="M52.4661 102.554L63.3691 102.574C63.2506 101.217 62.7042 100.151 61.7297 99.3738C60.7553 98.5969 59.4846 98.2085 57.9176 98.2085C56.3638 98.2085 55.0931 98.6035 54.1055 99.3936C53.1311 100.17 52.5846 101.224 52.4661 102.554ZM70.4995 109.171C69.6041 111.673 68.0503 113.608 65.8381 114.978C63.6259 116.334 60.9331 117.012 57.7596 117.012C53.7302 117.012 50.537 115.965 48.18 113.872C45.8361 111.765 44.6641 108.914 44.6641 105.319C44.6641 101.724 45.8361 98.8866 48.18 96.8061C50.5239 94.7124 53.7171 93.6655 57.7596 93.6655C61.9602 93.6655 65.1929 94.7519 67.4578 96.9246C69.7358 99.0841 70.8748 102.165 70.8748 106.168V107.097H52.2686C52.3081 108.69 52.8217 109.961 53.8092 110.909C54.81 111.844 56.1268 112.311 57.7596 112.311C59.0369 112.311 60.1364 112.041 61.0582 111.501C61.9799 110.948 62.6449 110.171 63.0531 109.171H70.4995Z" fill="url(#paint8_linear_6_53)"/>
<path d="M30.4372 116.242H23.6821V94.4359H30.4372V97.3196C31.4643 96.0818 32.5178 95.1667 33.5975 94.5741C34.6905 93.9684 35.8361 93.6655 37.0343 93.6655C37.2714 93.6655 37.7257 93.705 38.3972 93.784C38.6342 93.7972 38.812 93.8104 38.9305 93.8235V99.5713C38.7067 99.545 38.4499 99.5252 38.1602 99.5121C37.8705 99.4989 37.4162 99.4923 36.7973 99.4923C34.8221 99.4923 33.2683 100.111 32.1359 101.349C31.0035 102.587 30.4372 104.299 30.4372 106.484V116.242Z" fill="url(#paint9_linear_6_53)"/>
<path d="M3.94451 116.242V99.5713H0.764465V94.4358H3.94451V92.2631C3.94451 90.3933 4.49756 89.0568 5.60366 88.2535C6.72293 87.4371 8.58619 87.0289 11.1934 87.0289H15.7561V92.2631H12.9316C12.023 92.2631 11.4239 92.3817 11.1342 92.6187C10.8445 92.8425 10.6996 93.2902 10.6996 93.9618V94.4358H15.7561V99.5713H10.6996V116.242H3.94451Z" fill="url(#paint10_linear_6_53)"/>
<path d="M288.927 2.45471C288.356 15.5229 283.674 53.8294 242.715 69.9764C242.44 69.9774 242.066 70.1017 241.821 69.77C241.141 68.8508 240.02 66.7635 239.817 66.3535C239.684 66.0855 239.298 65.8292 240.911 64.6726C242.281 63.6895 251.233 59.4616 259.404 48.396C267.474 37.4674 272.227 21.2398 272.257 9.57103C260.123 9.78937 236.052 9.77007 231.861 9.57541C231.592 9.48962 230.967 9.50841 230.963 8.25104C230.89 6.92342 231.013 2.56021 231.009 1.47327C231.005 0.494757 231.584 0.00390313 232.584 0.000332109C233.546 -0.00309946 285.224 0.0228 287.613 0.0138675C289.124 0.00821901 288.938 2.18794 288.927 2.45471Z" fill="url(#paint11_linear_6_53)"/>
<path d="M102.895 0.0130811C115.777 0.583599 153.536 5.26612 169.453 46.2252C169.454 46.5 169.576 46.8734 169.249 47.1189C168.343 47.7993 166.285 48.9195 165.881 49.1228C165.617 49.2557 165.365 49.6419 164.225 48.0293C163.255 46.6587 159.088 37.7068 148.18 29.5358C137.408 21.466 121.412 16.7124 109.91 16.6833C110.125 28.8168 110.106 52.8876 109.914 57.0789C109.83 57.3476 109.848 57.9726 108.609 57.9766C107.3 58.0501 102.999 57.9268 101.928 57.9308C100.963 57.9345 100.48 57.356 100.476 56.3557C100.473 55.394 100.498 3.71638 100.489 1.32667C100.484 -0.184462 102.632 0.00143457 102.895 0.0130811Z" fill="url(#paint12_linear_6_53)"/>
<path d="M180.05 7.92584C179.565 7.57554 167.119 0.443933 166.523 0.129567C165.629 -0.341995 165.523 0.672318 165.46 1.74181C165.329 3.93993 166.513 27.1447 179.937 45.3735C193.134 63.2949 210.878 69.3461 211.772 69.8177C212.368 70.1322 212.698 69.6448 212.917 69.1934C213.136 68.7421 214.193 66.3709 214.485 65.7691C214.777 65.1673 214.554 65.0492 214.181 64.8528C213.436 64.4599 198.694 57.8177 189.453 38.4889C182.589 24.13 182.055 12.8567 181.853 10.7664C181.691 9.0861 180.899 8.53875 180.05 7.92584Z" fill="url(#paint13_linear_6_53)"/>
<path d="M194.922 8.82584C194.302 8.80663 193.99 9.34011 194.044 10.0378C193.922 12.4571 193.991 16.7648 194.035 17.3232C194.09 18.0212 194.573 18.361 195.325 18.3843C196.093 18.408 222.731 18.7299 223.468 18.6183C224.24 18.5016 224.342 17.9076 224.358 17.3911C224.372 16.9275 224.537 10.5893 224.466 10.1582C224.395 9.72702 224.366 9.22464 223.543 9.2185C223.159 9.21564 195.543 8.84505 194.922 8.82584Z" fill="url(#paint14_linear_6_53)"/>
<path d="M194.653 24.9079C194.032 24.8887 193.72 25.4221 193.775 26.1198C193.652 28.5391 193.721 32.8468 193.765 33.4052C193.82 34.1032 194.303 34.443 195.056 34.4663C195.823 34.4901 222.461 34.8119 223.199 34.7003C223.971 34.5836 224.073 33.9897 224.088 33.4731C224.102 33.0095 224.267 26.6714 224.197 26.2402C224.126 25.809 224.096 25.3067 223.273 25.3005C222.889 25.2977 195.273 24.9271 194.653 24.9079Z" fill="url(#paint15_linear_6_53)"/>
<path d="M73.9092 38.6622C74.9486 37.6592 76.447 38.0704 77.5876 38.7418C80.9219 40.7043 82.9885 42.1228 85.5746 45.2921C87.3636 47.4843 89.1728 51.5276 88.7528 56.5633C88.6676 57.5848 87.6041 58 85.789 58C82.8243 58 74.1117 57.8391 72.6047 57.8391C71.1433 57.8391 71.4542 56.3681 71.4542 55.383C71.4541 54.3009 71.4542 45.6129 71.4542 42.6379C71.4542 41.5091 71.8562 41.1734 72.1637 40.7075C72.5985 40.0487 72.8412 39.6928 73.9092 38.6622Z" fill="url(#paint16_linear_6_53)"/>
<path d="M58.8819 34.9032C59.5028 34.9119 59.8056 34.3754 59.7394 33.6814C59.8215 31.2699 59.6798 26.9808 59.6267 26.4254C59.5602 25.7311 59.0717 25.4008 58.3187 25.3901C57.5509 25.3793 30.9144 25.5036 30.1788 25.627C29.4091 25.7562 29.317 26.3494 29.3102 26.8642C29.3041 27.3261 29.2453 33.6414 29.3232 34.0696C29.4011 34.4978 29.4389 34.9977 30.2617 34.9901C30.6457 34.9865 58.261 34.8944 58.8819 34.9032Z" fill="url(#paint17_linear_6_53)"/>
<path d="M0.77777 2.45468C1.35812 15.5228 6.12137 53.8294 47.7866 69.9764C48.0661 69.9773 48.4461 70.1017 48.6958 69.77C49.3878 68.8508 50.5274 66.7634 50.7342 66.3534C50.8694 66.0854 51.2622 65.8292 49.6219 64.6726C48.2276 63.6895 39.1214 59.4615 30.8095 48.3959C22.6006 37.4674 17.765 21.2398 17.7354 9.571C30.0781 9.78935 54.5639 9.77005 58.8275 9.57539C59.1008 9.48961 59.7366 9.50839 59.7406 8.25102C59.8154 6.9234 59.69 2.56019 59.6941 1.47325C59.6978 0.494741 59.1094 0.00388669 58.0919 0.000315502C57.1135 -0.00311624 4.54492 0.0227741 2.11401 0.0138412C0.576821 0.00819243 0.765922 2.18792 0.77777 2.45468Z" fill="url(#paint18_linear_6_53)"/>
<path d="M284.523 78.6351C285.075 78.6354 285.523 79.083 285.523 79.6351C285.523 80.1872 285.075 80.6349 284.523 80.6351H1C0.447715 80.6351 0 80.1874 0 79.6351C0 79.0828 0.447715 78.6351 1 78.6351H284.523Z" fill="url(#paint19_linear_6_53)"/>
<defs>
<linearGradient id="paint0_linear_6_53" x1="327.966" y1="126.508" x2="26.151" y2="12.1846" gradientUnits="userSpaceOnUse">
<stop stop-color="#00FF33" stop-opacity="0.8"/>
<stop offset="1" stop-color="#EA9BD5" stop-opacity="0.8"/>
</linearGradient>
<linearGradient id="paint1_linear_6_53" x1="327.966" y1="126.508" x2="26.151" y2="12.1846" gradientUnits="userSpaceOnUse">
<stop stop-color="#00FF33" stop-opacity="0.8"/>
<stop offset="1" stop-color="#EA9BD5" stop-opacity="0.8"/>
</linearGradient>
<linearGradient id="paint2_linear_6_53" x1="327.966" y1="126.508" x2="26.151" y2="12.1846" gradientUnits="userSpaceOnUse">
<stop stop-color="#00FF33" stop-opacity="0.8"/>
<stop offset="1" stop-color="#EA9BD5" stop-opacity="0.8"/>
</linearGradient>
<linearGradient id="paint3_linear_6_53" x1="327.966" y1="126.508" x2="26.151" y2="12.1846" gradientUnits="userSpaceOnUse">
<stop stop-color="#00FF33" stop-opacity="0.8"/>
<stop offset="1" stop-color="#EA9BD5" stop-opacity="0.8"/>
</linearGradient>
<linearGradient id="paint4_linear_6_53" x1="327.966" y1="126.508" x2="26.151" y2="12.1846" gradientUnits="userSpaceOnUse">
<stop stop-color="#00FF33" stop-opacity="0.8"/>
<stop offset="1" stop-color="#EA9BD5" stop-opacity="0.8"/>
</linearGradient>
<linearGradient id="paint5_linear_6_53" x1="327.966" y1="126.508" x2="26.151" y2="12.1846" gradientUnits="userSpaceOnUse">
<stop stop-color="#00FF33" stop-opacity="0.8"/>
<stop offset="1" stop-color="#EA9BD5" stop-opacity="0.8"/>
</linearGradient>
<linearGradient id="paint6_linear_6_53" x1="327.966" y1="126.508" x2="26.151" y2="12.1846" gradientUnits="userSpaceOnUse">
<stop stop-color="#00FF33" stop-opacity="0.8"/>
<stop offset="1" stop-color="#EA9BD5" stop-opacity="0.8"/>
</linearGradient>
<linearGradient id="paint7_linear_6_53" x1="327.966" y1="126.508" x2="26.151" y2="12.1846" gradientUnits="userSpaceOnUse">
<stop stop-color="#00FF33" stop-opacity="0.8"/>
<stop offset="1" stop-color="#EA9BD5" stop-opacity="0.8"/>
</linearGradient>
<linearGradient id="paint8_linear_6_53" x1="327.966" y1="126.508" x2="26.151" y2="12.1846" gradientUnits="userSpaceOnUse">
<stop stop-color="#00FF33" stop-opacity="0.8"/>
<stop offset="1" stop-color="#EA9BD5" stop-opacity="0.8"/>
</linearGradient>
<linearGradient id="paint9_linear_6_53" x1="327.966" y1="126.508" x2="26.151" y2="12.1846" gradientUnits="userSpaceOnUse">
<stop stop-color="#00FF33" stop-opacity="0.8"/>
<stop offset="1" stop-color="#EA9BD5" stop-opacity="0.8"/>
</linearGradient>
<linearGradient id="paint10_linear_6_53" x1="327.966" y1="126.508" x2="26.151" y2="12.1846" gradientUnits="userSpaceOnUse">
<stop stop-color="#00FF33" stop-opacity="0.8"/>
<stop offset="1" stop-color="#EA9BD5" stop-opacity="0.8"/>
</linearGradient>
<linearGradient id="paint11_linear_6_53" x1="327.966" y1="126.508" x2="26.151" y2="12.1846" gradientUnits="userSpaceOnUse">
<stop stop-color="#00FF33" stop-opacity="0.8"/>
<stop offset="1" stop-color="#EA9BD5" stop-opacity="0.8"/>
</linearGradient>
<linearGradient id="paint12_linear_6_53" x1="327.966" y1="126.508" x2="26.151" y2="12.1846" gradientUnits="userSpaceOnUse">
<stop stop-color="#00FF33" stop-opacity="0.8"/>
<stop offset="1" stop-color="#EA9BD5" stop-opacity="0.8"/>
</linearGradient>
<linearGradient id="paint13_linear_6_53" x1="327.966" y1="126.508" x2="26.151" y2="12.1846" gradientUnits="userSpaceOnUse">
<stop stop-color="#00FF33" stop-opacity="0.8"/>
<stop offset="1" stop-color="#EA9BD5" stop-opacity="0.8"/>
</linearGradient>
<linearGradient id="paint14_linear_6_53" x1="327.966" y1="126.508" x2="26.151" y2="12.1846" gradientUnits="userSpaceOnUse">
<stop stop-color="#00FF33" stop-opacity="0.8"/>
<stop offset="1" stop-color="#EA9BD5" stop-opacity="0.8"/>
</linearGradient>
<linearGradient id="paint15_linear_6_53" x1="327.966" y1="126.508" x2="26.151" y2="12.1846" gradientUnits="userSpaceOnUse">
<stop stop-color="#00FF33" stop-opacity="0.8"/>
<stop offset="1" stop-color="#EA9BD5" stop-opacity="0.8"/>
</linearGradient>
<linearGradient id="paint16_linear_6_53" x1="327.966" y1="126.508" x2="26.151" y2="12.1846" gradientUnits="userSpaceOnUse">
<stop stop-color="#00FF33" stop-opacity="0.8"/>
<stop offset="1" stop-color="#EA9BD5" stop-opacity="0.8"/>
</linearGradient>
<linearGradient id="paint17_linear_6_53" x1="327.966" y1="126.508" x2="26.151" y2="12.1846" gradientUnits="userSpaceOnUse">
<stop stop-color="#00FF33" stop-opacity="0.8"/>
<stop offset="1" stop-color="#EA9BD5" stop-opacity="0.8"/>
</linearGradient>
<linearGradient id="paint18_linear_6_53" x1="327.966" y1="126.508" x2="26.151" y2="12.1846" gradientUnits="userSpaceOnUse">
<stop stop-color="#00FF33" stop-opacity="0.8"/>
<stop offset="1" stop-color="#EA9BD5" stop-opacity="0.8"/>
</linearGradient>
<linearGradient id="paint19_linear_6_53" x1="327.966" y1="126.508" x2="26.151" y2="12.1846" gradientUnits="userSpaceOnUse">
<stop stop-color="#00FF33" stop-opacity="0.8"/>
<stop offset="1" stop-color="#EA9BD5" stop-opacity="0.8"/>
</linearGradient>
</defs>
</svg>
