<svg width="608" height="231" viewBox="0 0 608 231" fill="none" xmlns="http://www.w3.org/2000/svg">
<path d="M532.994 69.6086C532.196 87.8838 525.648 141.454 468.369 164.035C467.984 164.036 467.462 164.21 467.119 163.746C466.167 162.461 464.601 159.541 464.316 158.968C464.131 158.593 463.59 158.235 465.846 156.617C467.762 155.243 480.281 149.33 491.708 133.855C502.993 118.572 509.641 95.8787 509.682 79.5605C492.713 79.8658 442.703 79.8572 436.842 79.585C436.466 79.465 435.592 79.4913 435.586 77.7329C435.484 75.8763 435.656 69.7746 435.65 68.2545C435.645 66.8861 436.454 66.1997 437.853 66.1947C439.198 66.1899 527.815 66.2077 531.157 66.1952C533.27 66.1873 533.01 69.2356 532.994 69.6086Z" fill="#7C7C7C" fill-opacity="0.2"/>
<path d="M381.909 77.0825C382.587 76.5975 399.934 66.7843 400.764 66.3528C402.009 65.7056 402.131 67.1459 402.194 68.6634C402.324 71.7824 400.152 104.647 381.199 130.167C362.565 155.257 337.929 163.413 336.684 164.06C335.853 164.492 335.409 163.793 335.117 163.148C334.825 162.503 333.421 159.117 333.032 158.257C332.643 157.397 332.954 157.235 333.473 156.965C334.51 156.426 355.016 147.361 368.22 120.182C378.029 99.9917 379.027 84.0244 379.354 81.0661C379.617 78.6882 380.723 77.9312 381.909 77.0825Z" fill="#7C7C7C" fill-opacity="0.2"/>
<path d="M361.357 78.0049C362.214 77.9924 362.632 78.756 362.541 79.7437C362.654 83.1759 362.459 89.2805 362.385 90.071C362.293 91.0591 361.619 91.5293 360.579 91.5444C359.519 91.5599 322.738 91.3829 321.722 91.2072C320.659 91.0234 320.532 90.1791 320.522 89.4465C320.514 88.789 320.433 79.8008 320.54 79.1913C320.648 78.5818 320.7 77.8704 321.836 77.8812C322.367 77.8863 360.499 78.0174 361.357 78.0049Z" fill="#7C7C7C" fill-opacity="0.2"/>
<path d="M361.357 100.808C362.214 100.795 362.632 101.559 362.541 102.546C362.654 105.979 362.459 112.083 362.385 112.874C362.293 113.862 361.619 114.332 360.579 114.347C359.519 114.363 322.738 114.186 321.722 114.01C320.659 113.826 320.532 112.982 320.522 112.249C320.514 111.592 320.433 102.604 320.54 101.994C320.648 101.385 320.7 100.673 321.836 100.684C322.367 100.689 360.499 100.82 361.357 100.808Z" fill="#7C7C7C" fill-opacity="0.2"/>
<path d="M74.7227 69.5042C75.54 87.7996 82.2487 141.429 140.931 164.035C141.325 164.036 141.86 164.21 142.212 163.746C143.186 162.459 144.791 159.536 145.083 158.962C145.273 158.587 145.826 158.228 143.516 156.609C141.552 155.233 128.727 149.314 117.02 133.822C105.459 118.522 98.648 95.8033 98.6063 79.467C110.589 79.6777 130.698 79.7304 144.003 79.6535C144.333 79.6516 144.003 116.854 144.003 117.269C144.003 118.177 144.895 118.615 145.536 118.654C148.742 118.654 154.874 118.654 156.407 118.654C156.792 118.534 157.697 118.894 157.702 117.134C157.708 115.254 157.696 69.6519 157.702 68.1302C157.707 66.7603 156.879 66.0731 155.445 66.0681C154.068 66.0633 80.0284 66.0995 76.6046 66.087C74.4396 66.0791 74.706 69.1307 74.7227 69.5042Z" fill="#7C7C7C" fill-opacity="0.2"/>
<path d="M216.919 156.7C216.33 157.092 215.971 157.649 216.428 158.565C216.952 159.612 218.311 162.161 218.979 163.276C219.567 164.258 220.254 164.159 220.941 163.865C222.78 163.076 234.674 158.565 240.168 153.853C248.408 160.135 258.551 163.296 259.492 163.767C260.67 164.356 260.983 164.027 261.454 163.178C261.945 162.295 263.099 159.985 263.71 158.762L263.711 158.761C264.299 157.583 263.416 157.092 262.533 156.602C261.827 156.209 253.901 151.89 248.996 147.571C264.593 134.124 271.092 121.782 274.697 114.396C279.379 104.803 284.997 83.8697 284.409 67.7725C284.33 65.6188 283.431 66.0042 282.745 66.2985L282.741 66.3002C281.03 67.0338 265.628 75.7104 263.318 77.0971C260.866 78.5694 261.236 79.3328 261.16 80.6306C260.67 88.9737 258.854 99.3844 256.648 106.543C253.411 117.046 246.25 132.456 239.873 138.443C234.184 131.769 227.513 120.776 223.786 111.156C221.374 104.932 217.507 91.722 217.311 81.3177C217.252 78.1712 215.742 77.9805 214.466 77.2934C213.191 76.6063 197.241 67.4979 195.632 66.6928C194.399 66.0761 193.278 66.8891 193.474 69.0485C193.909 73.8393 194.749 96.6297 205.54 116.849C212.354 129.618 223.099 142.467 231.045 147.473C225.747 151.988 217.416 156.368 216.919 156.7Z" fill="#7C7C7C" fill-opacity="0.2"/>
</svg>
