<svg width="334" height="71" viewBox="0 0 334 71" fill="#fff" xmlns="http://www.w3.org/2000/svg">
<path d="M57.3277 0.424464C58.3451 0.428063 58.9339 0.918637 58.9302 1.89712C58.9261 2.98417 59.0509 7.34654 58.9761 8.67446C58.9721 9.93184 58.3363 9.9129 58.063 9.99868C53.7988 10.1933 29.3138 10.2131 16.9712 9.99478C17.0008 21.6635 21.8365 37.8914 30.0455 48.82C38.3573 59.8854 47.4637 64.1132 48.8579 65.0963C50.4975 66.2524 50.1055 66.5091 49.9703 66.777C49.7635 67.187 48.6232 69.2748 47.9312 70.194C47.6814 70.5253 47.3015 70.401 47.022 70.4C5.35719 54.253 0.593599 15.9468 0.0132236 2.87857C0.00137631 2.6118 -0.187047 0.431511 1.35014 0.437159C3.78641 0.446088 56.3494 0.421032 57.3277 0.424464Z" fill="#FFA100"/>
<path d="M57.5542 25.8141C58.3072 25.8247 58.7964 26.155 58.8628 26.8493C58.916 27.4054 59.0572 31.6939 58.9751 34.1051C59.0413 34.7991 58.7386 35.3355 58.1177 35.3268C57.4969 35.318 29.8881 35.4101 29.4976 35.4137C28.6751 35.4213 28.637 34.9219 28.5591 34.4938C28.4812 34.0656 28.5393 27.7497 28.5455 27.2877C28.5523 26.773 28.645 26.1796 29.4146 26.0504C30.1523 25.927 56.7818 25.8033 57.5542 25.8141Z" fill="#FFA100"/>
<path d="M121.501 0.436571C134.569 1.00709 172.876 5.68961 189.023 46.6486C189.024 46.9234 189.148 47.2969 188.817 47.5424C187.897 48.2227 185.81 49.343 185.4 49.5463C185.132 49.6792 184.876 50.0654 183.719 48.4528C182.736 47.0822 178.508 38.1303 167.443 29.9593C156.514 21.8895 140.286 17.1359 128.618 17.1068C128.836 29.2403 128.83 65.0014 128.635 69.1928C128.549 69.4614 128.568 70.0865 127.311 70.0904C125.983 70.1639 121.62 70.0406 120.533 70.0447C119.554 70.0484 119.064 69.4699 119.06 68.4696C119.057 67.5078 119.069 4.13987 119.06 1.75016C119.055 0.239028 121.235 0.424924 121.501 0.436571Z" fill="#FFA100"/>
<path d="M333.298 2.45469C332.727 15.5228 328.045 53.8294 287.086 69.9764C286.811 69.9774 286.438 70.1017 286.192 69.77C285.512 68.8508 284.391 66.7634 284.188 66.3534C284.055 66.0854 283.669 65.8292 285.282 64.6726C286.652 63.6895 295.604 59.4616 303.775 48.396C311.845 37.4674 316.599 21.2398 316.628 9.57101C304.494 9.78936 280.423 9.77006 276.232 9.57539C275.963 9.48961 275.338 9.5084 275.334 8.25102C275.261 6.9234 275.384 2.56019 275.38 1.47325C275.376 0.49474 275.955 0.00388639 276.955 0.000315369C277.917 -0.0031162 329.595 0.0227832 331.984 0.0138508C333.495 0.00820227 333.31 2.18793 333.298 2.45469Z" fill="#FFA100"/>
<path d="M210.688 8.20394C210.205 7.85516 197.813 0.75438 197.219 0.441373C196.329 -0.0281502 196.224 0.981779 196.161 2.04665C196.03 4.23527 197.209 27.3397 210.575 45.4897C223.715 63.3337 241.383 69.3588 242.273 69.8283C242.867 70.1414 243.195 69.6561 243.413 69.2067C243.631 68.7573 244.684 66.3964 244.974 65.7972C245.265 65.198 245.042 65.0804 244.672 64.8849C243.93 64.4936 229.252 57.8801 220.051 38.6349C213.216 24.3381 212.685 13.1135 212.483 11.0322C212.322 9.35919 211.533 8.81421 210.688 8.20394Z" fill="#FFA100"/>
<path d="M225.496 9.10006C224.878 9.08093 224.568 9.6121 224.622 10.3068C224.5 12.7156 224.569 17.0047 224.612 17.5607C224.667 18.2556 225.148 18.594 225.897 18.6172C226.662 18.6408 253.184 18.9613 253.919 18.8502C254.687 18.7339 254.789 18.1426 254.804 17.6282C254.818 17.1667 254.983 10.8559 254.912 10.4266C254.842 9.99734 254.813 9.49714 253.993 9.49102C253.611 9.48817 226.114 9.11918 225.496 9.10006Z" fill="#FFA100"/>
<path d="M225.228 25.1126C224.61 25.0934 224.299 25.6246 224.353 26.3193C224.231 28.7281 224.3 33.0172 224.344 33.5732C224.398 34.2682 224.879 34.6065 225.629 34.6297C226.393 34.6534 252.916 34.9738 253.65 34.8627C254.419 34.7465 254.521 34.1551 254.536 33.6408C254.55 33.1792 254.714 26.8684 254.644 26.4392C254.573 26.0099 254.544 25.5097 253.725 25.5035C253.342 25.5007 225.846 25.1317 225.228 25.1126Z" fill="#FFA100"/>
<path d="M79.0006 30.1501C79.0006 35.6729 83.4777 40.1501 89.0006 40.1501C94.5234 40.1501 99.0006 35.6729 99.0006 30.1501C99.0006 24.6272 94.5234 20.1501 89.0006 20.1501C83.4777 20.1501 79.0006 24.6272 79.0006 30.1501Z" fill="#FFA100"/>
</svg>
