<svg width="936" height="162" viewBox="0 0 936 162" fill="none" xmlns="http://www.w3.org/2000/svg">
<path fill-rule="evenodd" clip-rule="evenodd" d="M47.1803 71.175C23.3169 70.9993 3.82942 90.2016 3.65376 114.064C3.4781 137.927 22.6807 157.414 46.5441 157.59C70.4075 157.765 89.895 138.563 90.0706 114.7C90.2463 90.8377 71.0437 71.3506 47.1803 71.175ZM0.342382 114.04C0.531502 88.3483 21.5125 67.6745 47.2046 67.8636C72.8968 68.0527 93.5712 89.0331 93.382 114.725C93.1929 140.416 72.2119 161.09 46.5198 160.901C20.8276 160.712 0.153261 139.732 0.342382 114.04Z" fill="white"/>
<path fill-rule="evenodd" clip-rule="evenodd" d="M180.238 127.881C178.87 127.871 177.753 128.971 177.743 130.339C177.733 131.707 178.834 132.824 180.202 132.834C181.57 132.844 182.687 131.743 182.697 130.376C182.707 129.008 181.606 127.891 180.238 127.881ZM174.432 130.315C174.455 127.118 177.066 124.546 180.262 124.569C183.459 124.593 186.032 127.203 186.008 130.4C185.984 133.597 183.374 136.169 180.177 136.145C176.981 136.122 174.408 133.512 174.432 130.315Z" fill="white"/>
<path fill-rule="evenodd" clip-rule="evenodd" d="M272.014 128.846C270.646 128.836 269.529 129.937 269.519 131.305C269.508 132.672 270.609 133.79 271.977 133.8C273.345 133.81 274.462 132.709 274.472 131.341C274.482 129.973 273.382 128.856 272.014 128.846ZM266.207 131.28C266.231 128.084 268.841 125.511 272.038 125.535C275.235 125.558 277.807 128.169 277.784 131.366C277.76 134.562 275.149 137.135 271.953 137.111C268.756 137.087 266.184 134.477 266.207 131.28Z" fill="white"/>
<path fill-rule="evenodd" clip-rule="evenodd" d="M364.078 128.828C362.71 128.818 361.593 129.919 361.583 131.287C361.573 132.655 362.674 133.772 364.042 133.782C365.409 133.792 366.527 132.691 366.537 131.323C366.547 129.956 365.446 128.838 364.078 128.828ZM358.272 131.263C358.295 128.066 360.906 125.494 364.102 125.517C367.299 125.541 369.872 128.151 369.848 131.348C369.824 134.544 367.214 137.117 364.017 137.093C360.82 137.07 358.248 134.459 358.272 131.263Z" fill="white"/>
<path fill-rule="evenodd" clip-rule="evenodd" d="M455.459 129.489C454.092 129.479 452.974 130.58 452.964 131.948C452.954 133.315 454.055 134.433 455.423 134.443C456.791 134.453 457.908 133.352 457.918 131.984C457.928 130.616 456.827 129.499 455.459 129.489ZM449.653 131.923C449.677 128.727 452.287 126.154 455.484 126.178C458.681 126.201 461.253 128.812 461.229 132.009C461.206 135.205 458.595 137.778 455.399 137.754C452.202 137.73 449.63 135.12 449.653 131.923Z" fill="white"/>
<path fill-rule="evenodd" clip-rule="evenodd" d="M540.481 119.814C533.407 119.762 527.631 125.454 527.579 132.528C527.527 139.601 533.219 145.377 540.293 145.43C547.366 145.482 553.143 139.79 553.195 132.716C553.247 125.643 547.555 119.866 540.481 119.814ZM524.267 132.503C524.333 123.601 531.603 116.437 540.506 116.503C549.408 116.568 556.572 123.838 556.506 132.74C556.441 141.643 549.171 148.806 540.268 148.741C531.366 148.675 524.202 141.406 524.267 132.503Z" fill="white"/>
<path fill-rule="evenodd" clip-rule="evenodd" d="M633.155 120.086C626.32 120.035 620.667 125.687 620.616 132.8C620.565 139.913 626.136 145.65 632.972 145.702C639.807 145.753 645.46 140.101 645.511 132.988C645.562 125.875 639.991 120.138 633.155 120.086ZM617.305 132.775C617.368 123.912 624.437 116.709 633.179 116.775C641.922 116.841 648.886 124.15 648.822 133.013C648.759 141.876 641.69 149.079 632.948 149.013C624.205 148.947 617.241 141.638 617.305 132.775Z" fill="white"/>
<path fill-rule="evenodd" clip-rule="evenodd" d="M659.047 133.055C659.048 133.97 658.313 134.712 657.406 134.713L608.805 134.77C607.898 134.771 607.161 134.031 607.16 133.116C607.159 132.202 607.894 131.46 608.801 131.459L657.402 131.401C658.309 131.4 659.046 132.141 659.047 133.055Z" fill="white"/>
<path fill-rule="evenodd" clip-rule="evenodd" d="M726.173 126.062C722.522 126.035 719.542 128.973 719.515 132.623C719.488 136.273 722.425 139.254 726.075 139.281C729.726 139.307 732.707 136.37 732.733 132.72C732.76 129.07 729.823 126.089 726.173 126.062ZM716.203 132.598C716.244 127.119 720.718 122.711 726.197 122.751C731.676 122.791 736.085 127.266 736.045 132.744C736.004 138.223 731.53 142.632 726.051 142.592C720.572 142.552 716.163 138.077 716.203 132.598Z" fill="white"/>
<path fill-rule="evenodd" clip-rule="evenodd" d="M819.292 126.393C815.641 126.367 812.66 129.304 812.634 132.954C812.607 136.604 815.544 139.585 819.194 139.612C822.844 139.639 825.825 136.701 825.852 133.051C825.879 129.401 822.942 126.42 819.292 126.393ZM809.322 132.929C809.362 127.451 813.837 123.042 819.316 123.082C824.795 123.122 829.204 127.597 829.164 133.076C829.123 138.555 824.649 142.963 819.17 142.923C813.691 142.883 809.282 138.408 809.322 132.929Z" fill="white"/>
<path fill-rule="evenodd" clip-rule="evenodd" d="M912.013 131.441C910.873 131.432 909.943 132.349 909.934 133.489C909.926 134.629 910.843 135.559 911.983 135.568C913.122 135.576 914.053 134.659 914.061 133.519C914.07 132.38 913.153 131.449 912.013 131.441ZM906.623 133.465C906.645 130.496 909.069 128.107 912.037 128.129C915.006 128.151 917.395 130.575 917.373 133.544C917.351 136.512 914.927 138.901 911.958 138.879C908.99 138.857 906.601 136.433 906.623 133.465Z" fill="white"/>
<path fill-rule="evenodd" clip-rule="evenodd" d="M630.193 50.5957C631.076 50.8319 631.599 51.7362 631.362 52.6155C630.898 54.3356 630.42 57.103 629.79 60.7508C629.692 61.3205 629.589 61.9117 629.483 62.5237C628.705 67.0012 627.718 72.4754 626.33 78.4776C623.557 90.4695 619.168 104.646 611.573 117.323C596.17 143.031 568.507 161.611 524.795 161.611L524.783 161.611C502.484 161.448 483.972 161.554 468.668 161.642C454.515 161.724 443.105 161.789 433.978 161.611C417.901 161.297 408.002 160.09 399.023 156.794C390.081 153.511 382.153 148.188 370.012 139.926C369.258 139.412 369.063 138.387 369.579 137.635C370.094 136.883 371.123 136.689 371.878 137.203C384.105 145.523 391.682 150.585 400.167 153.7C408.615 156.801 418.064 158.002 434.043 158.314C443.176 158.493 454.514 158.427 468.603 158.345C483.872 158.257 502.373 158.15 524.8 158.314C567.408 158.313 593.959 140.29 608.732 115.632C616.076 103.375 620.369 89.5735 623.106 77.7373C624.473 71.8255 625.448 66.4231 626.223 61.961C626.328 61.3577 626.429 60.7692 626.528 60.1973C627.151 56.5899 627.66 53.6401 628.166 51.7603C628.403 50.8809 629.311 50.3595 630.193 50.5957Z" fill="white"/>
<path fill-rule="evenodd" clip-rule="evenodd" d="M630.281 50.6111C630.801 50.7675 631.21 51.1611 631.375 51.665L636.057 65.9517C636.336 66.8024 635.852 67.7116 634.976 67.9824C634.101 68.2533 633.165 67.7832 632.886 66.9325L628.928 54.8574L619.282 62.1656C618.557 62.7146 617.511 62.589 616.946 61.885C616.381 61.181 616.51 60.1652 617.235 59.6162L628.766 50.8807C629.195 50.5555 629.761 50.4548 630.281 50.6111Z" fill="white"/>
<path fill-rule="evenodd" clip-rule="evenodd" d="M170.825 106.469H170.233C169.639 106.469 169.157 106.952 169.157 107.548C169.157 107.971 169.4 108.338 169.753 108.515L169.764 111.144C169.404 111.318 169.157 111.688 169.157 112.115C169.157 112.711 169.639 113.195 170.233 113.195H170.844C170.844 113.195 170.844 113.195 170.844 113.195H171.475C172.069 113.195 172.551 112.711 172.551 112.115C172.551 111.677 172.291 111.299 171.916 111.13L171.906 108.538C172.286 108.371 172.551 107.991 172.551 107.548C172.551 106.952 172.069 106.469 171.475 106.469H170.827C170.826 106.469 170.826 106.469 170.825 106.469ZM182.095 106.469H181.503C180.908 106.469 180.426 106.952 180.426 107.548C180.426 107.971 180.669 108.338 181.023 108.515L181.033 111.144C180.674 111.318 180.426 111.688 180.426 112.115C180.426 112.711 180.908 113.195 181.503 113.195H182.113C182.114 113.195 182.114 113.195 182.114 113.195H182.745C183.339 113.195 183.821 112.711 183.821 112.115C183.821 111.677 183.56 111.299 183.186 111.13L183.176 108.538C183.556 108.371 183.821 107.991 183.821 107.548C183.821 106.952 183.339 106.469 182.745 106.469H182.096C182.096 106.469 182.095 106.469 182.095 106.469ZM367.407 106.957H366.815C366.22 106.957 365.739 107.44 365.739 108.036C365.739 108.46 365.982 108.826 366.335 109.003L366.346 111.632C365.986 111.807 365.739 112.176 365.739 112.603C365.739 113.2 366.22 113.683 366.815 113.683H367.425C367.426 113.683 367.426 113.683 367.426 113.683H368.057C368.651 113.683 369.133 113.2 369.133 112.603C369.133 112.165 368.873 111.788 368.498 111.619L368.488 109.026C368.868 108.859 369.133 108.479 369.133 108.036C369.133 107.44 368.651 106.957 368.057 106.957H367.408C367.408 106.957 367.408 106.957 367.407 106.957ZM353.416 109.026C353.796 108.859 354.061 108.479 354.061 108.036C354.061 107.44 353.579 106.957 352.985 106.957H352.337C352.336 106.957 352.336 106.957 352.335 106.957H351.743C351.149 106.957 350.667 107.44 350.667 108.036C350.667 108.46 350.91 108.826 351.263 109.003L351.274 111.632C350.915 111.807 350.667 112.176 350.667 112.603C350.667 113.2 351.149 113.683 351.743 113.683H352.354C352.354 113.683 352.354 113.683 352.355 113.683H352.985C353.579 113.683 354.061 113.2 354.061 112.603C354.061 112.165 353.801 111.788 353.427 111.619L353.416 109.026ZM356.87 109.026C357.25 108.859 357.515 108.479 357.515 108.036C357.515 107.44 357.033 106.957 356.439 106.957H355.79C355.79 106.957 355.789 106.957 355.789 106.957H355.197C354.602 106.957 354.12 107.44 354.12 108.036C354.12 108.46 354.363 108.826 354.717 109.003L354.727 111.632C354.368 111.807 354.12 112.176 354.12 112.603C354.12 113.2 354.602 113.683 355.197 113.683H355.807C355.807 113.683 355.808 113.683 355.808 113.683H356.439C357.033 113.683 357.515 113.2 357.515 112.603C357.515 112.165 357.254 111.788 356.88 111.619L356.87 109.026ZM516.357 107.623H515.765C515.17 107.623 514.688 108.106 514.688 108.702C514.688 109.125 514.931 109.492 515.285 109.669L515.295 112.297C514.936 112.472 514.688 112.842 514.688 113.269C514.688 113.865 515.17 114.349 515.765 114.349H516.375C516.375 114.349 516.376 114.349 516.376 114.349H517.006C517.601 114.349 518.083 113.865 518.083 113.269C518.083 112.831 517.822 112.453 517.448 112.284L517.438 109.691C517.817 109.525 518.083 109.145 518.083 108.702C518.083 108.106 517.601 107.623 517.006 107.623H516.358C516.358 107.623 516.357 107.623 516.357 107.623ZM552.77 107.623H552.178C551.583 107.623 551.101 108.106 551.101 108.702C551.101 109.125 551.344 109.492 551.698 109.669L551.708 112.297C551.349 112.472 551.101 112.842 551.101 113.269C551.101 113.865 551.583 114.349 552.178 114.349H552.788C552.788 114.349 552.789 114.349 552.789 114.349H553.42C554.014 114.349 554.496 113.865 554.496 113.269C554.496 112.831 554.235 112.453 553.861 112.284L553.851 109.692C554.231 109.525 554.496 109.145 554.496 108.702C554.496 108.106 554.014 107.623 553.42 107.623H552.771C552.771 107.623 552.77 107.623 552.77 107.623ZM556.914 107.623H556.321C555.727 107.623 555.245 108.106 555.245 108.702C555.245 109.125 555.488 109.492 555.842 109.669L555.852 112.297C555.493 112.472 555.245 112.842 555.245 113.269C555.245 113.865 555.727 114.349 556.321 114.349H556.932C556.932 114.349 556.933 114.349 556.933 114.349H557.563C558.158 114.349 558.64 113.865 558.64 113.269C558.64 112.831 558.379 112.453 558.005 112.284L557.995 109.692C558.374 109.525 558.64 109.145 558.64 108.702C558.64 108.106 558.158 107.623 557.563 107.623H556.915C556.915 107.623 556.914 107.623 556.914 107.623ZM708.124 108.042H707.532C706.937 108.042 706.456 108.525 706.456 109.121C706.456 109.544 706.699 109.911 707.052 110.088L707.063 112.717C706.703 112.891 706.456 113.261 706.456 113.688C706.456 114.284 706.937 114.768 707.532 114.768H708.142C708.143 114.768 708.143 114.768 708.143 114.768H708.774C709.368 114.768 709.85 114.284 709.85 113.688C709.85 113.25 709.59 112.872 709.215 112.703L709.205 110.111C709.585 109.944 709.85 109.564 709.85 109.121C709.85 108.525 709.368 108.042 708.774 108.042H708.125C708.125 108.042 708.125 108.042 708.124 108.042ZM712.136 108.042H711.544C710.95 108.042 710.468 108.525 710.468 109.121C710.468 109.544 710.711 109.911 711.064 110.088L711.075 112.717C710.715 112.891 710.468 113.261 710.468 113.688C710.468 114.284 710.95 114.768 711.544 114.768H712.154C712.155 114.768 712.155 114.768 712.155 114.768H712.786C713.38 114.768 713.862 114.284 713.862 113.688C713.862 113.25 713.602 112.872 713.227 112.703L713.217 110.111C713.597 109.944 713.862 109.564 713.862 109.121C713.862 108.525 713.38 108.042 712.786 108.042H712.138C712.137 108.042 712.137 108.042 712.136 108.042ZM716.148 108.042H715.556C714.962 108.042 714.48 108.525 714.48 109.121C714.48 109.544 714.723 109.911 715.076 110.088L715.087 112.717C714.727 112.891 714.48 113.261 714.48 113.688C714.48 114.284 714.962 114.768 715.556 114.768H716.166C716.167 114.768 716.167 114.768 716.167 114.768H716.798C717.392 114.768 717.874 114.284 717.874 113.688C717.874 113.25 717.614 112.872 717.239 112.703L717.229 110.111C717.609 109.944 717.874 109.564 717.874 109.121C717.874 108.525 717.392 108.042 716.798 108.042H716.15C716.149 108.042 716.149 108.042 716.148 108.042ZM720.16 108.042H719.568C718.974 108.042 718.492 108.525 718.492 109.121C718.492 109.544 718.735 109.911 719.088 110.088L719.099 112.717C718.74 112.891 718.492 113.261 718.492 113.688C718.492 114.284 718.974 114.768 719.568 114.768H720.179C720.179 114.768 720.179 114.768 720.179 114.768H720.81C721.404 114.768 721.886 114.284 721.886 113.688C721.886 113.25 721.626 112.872 721.251 112.703L721.241 110.111C721.621 109.944 721.886 109.564 721.886 109.121C721.886 108.525 721.404 108.042 720.81 108.042H720.162C720.161 108.042 720.161 108.042 720.16 108.042ZM731.971 108.042H731.379C730.784 108.042 730.302 108.525 730.302 109.121C730.302 109.544 730.545 109.911 730.899 110.088L730.91 112.717C730.55 112.891 730.302 113.261 730.302 113.688C730.302 114.284 730.784 114.768 731.379 114.768H731.989C731.99 114.768 731.99 114.768 731.99 114.768H732.621C733.215 114.768 733.697 114.284 733.697 113.688C733.697 113.25 733.437 112.872 733.062 112.703L733.052 110.111C733.432 109.944 733.697 109.564 733.697 109.121C733.697 108.525 733.215 108.042 732.621 108.042H731.972C731.972 108.042 731.971 108.042 731.971 108.042ZM735.878 108.042H735.286C734.691 108.042 734.209 108.525 734.209 109.121C734.209 109.544 734.452 109.911 734.806 110.088L734.816 112.717C734.457 112.891 734.209 113.261 734.209 113.688C734.209 114.284 734.691 114.768 735.286 114.768H735.896C735.896 114.768 735.897 114.768 735.897 114.768H736.528C737.122 114.768 737.604 114.284 737.604 113.688C737.604 113.25 737.343 112.872 736.969 112.703L736.959 110.111C737.339 109.944 737.604 109.564 737.604 109.121C737.604 108.525 737.122 108.042 736.528 108.042H735.879C735.879 108.042 735.878 108.042 735.878 108.042ZM739.785 108.042H739.193C738.598 108.042 738.116 108.525 738.116 109.121C738.116 109.544 738.359 109.911 738.713 110.088L738.723 112.717C738.364 112.891 738.116 113.261 738.116 113.688C738.116 114.284 738.598 114.768 739.193 114.768H739.803C739.803 114.768 739.804 114.768 739.804 114.768H740.435C741.029 114.768 741.511 114.284 741.511 113.688C741.511 113.25 741.25 112.872 740.876 112.703L740.866 110.111C741.245 109.944 741.511 109.564 741.511 109.121C741.511 108.525 741.029 108.042 740.435 108.042H739.786C739.786 108.042 739.785 108.042 739.785 108.042ZM743.692 108.042H743.099C742.505 108.042 742.023 108.525 742.023 109.121C742.023 109.544 742.266 109.911 742.62 110.088L742.63 112.717C742.271 112.891 742.023 113.261 742.023 113.688C742.023 114.284 742.505 114.768 743.099 114.768H743.71C743.71 114.768 743.71 114.768 743.711 114.768H744.341C744.936 114.768 745.418 114.284 745.418 113.688C745.418 113.25 745.157 112.872 744.783 112.703L744.772 110.111C745.152 109.944 745.418 109.564 745.418 109.121C745.418 108.525 744.936 108.042 744.341 108.042H743.693C743.693 108.042 743.692 108.042 743.692 108.042ZM889.943 108.476H889.35C888.756 108.476 888.274 108.96 888.274 109.556C888.274 109.979 888.517 110.346 888.871 110.523L888.881 113.151C888.522 113.326 888.274 113.696 888.274 114.123C888.274 114.719 888.756 115.203 889.35 115.203H889.961C889.961 115.203 889.962 115.203 889.962 115.203H890.592C891.187 115.203 891.669 114.719 891.669 114.123C891.669 113.685 891.408 113.307 891.034 113.138L891.024 110.545C891.403 110.379 891.669 109.998 891.669 109.556C891.669 108.96 891.187 108.476 890.592 108.476H889.944C889.944 108.476 889.943 108.476 889.943 108.476ZM894 108.476H893.408C892.813 108.476 892.331 108.96 892.331 109.556C892.331 109.979 892.574 110.346 892.928 110.523L892.938 113.151C892.579 113.326 892.331 113.696 892.331 114.123C892.331 114.719 892.813 115.203 893.408 115.203H894.018C894.018 115.203 894.019 115.203 894.019 115.203H894.649C895.244 115.203 895.726 114.719 895.726 114.123C895.726 113.685 895.465 113.307 895.091 113.138L895.081 110.545C895.46 110.379 895.726 109.998 895.726 109.556C895.726 108.96 895.244 108.476 894.649 108.476H894.001C894.001 108.476 894 108.476 894 108.476ZM898.057 108.476H897.465C896.87 108.476 896.388 108.96 896.388 109.556C896.388 109.979 896.631 110.346 896.985 110.523L896.995 113.151C896.636 113.326 896.388 113.696 896.388 114.123C896.388 114.719 896.87 115.203 897.465 115.203H898.075C898.075 115.203 898.076 115.203 898.076 115.203H898.707C899.301 115.203 899.783 114.719 899.783 114.123C899.783 113.685 899.522 113.307 899.148 113.138L899.138 110.545C899.518 110.379 899.783 109.998 899.783 109.556C899.783 108.96 899.301 108.476 898.707 108.476H898.058C898.058 108.476 898.057 108.476 898.057 108.476ZM902.114 108.476H901.522C900.927 108.476 900.446 108.96 900.446 109.556C900.446 109.979 900.688 110.346 901.042 110.523L901.053 113.151C900.693 113.326 900.446 113.696 900.446 114.123C900.446 114.719 900.927 115.203 901.522 115.203H902.132C902.133 115.203 902.133 115.203 902.133 115.203H902.764C903.358 115.203 903.84 114.719 903.84 114.123C903.84 113.685 903.58 113.307 903.205 113.138L903.195 110.545C903.575 110.379 903.84 109.998 903.84 109.556C903.84 108.96 903.358 108.476 902.764 108.476H902.115C902.115 108.476 902.115 108.476 902.114 108.476ZM906.171 108.476H905.579C904.985 108.476 904.503 108.96 904.503 109.556C904.503 109.979 904.746 110.346 905.099 110.523L905.11 113.151C904.75 113.326 904.503 113.696 904.503 114.123C904.503 114.719 904.985 115.203 905.579 115.203H906.19C906.19 115.203 906.19 115.203 906.19 115.203H906.821C907.415 115.203 907.897 114.719 907.897 114.123C907.897 113.685 907.637 113.307 907.262 113.138L907.252 110.545C907.632 110.379 907.897 109.998 907.897 109.556C907.897 108.96 907.415 108.476 906.821 108.476H906.173C906.172 108.476 906.172 108.476 906.171 108.476ZM910.228 108.476H909.636C909.042 108.476 908.56 108.96 908.56 109.556C908.56 109.979 908.803 110.346 909.156 110.523L909.167 113.151C908.807 113.326 908.56 113.696 908.56 114.123C908.56 114.719 909.042 115.203 909.636 115.203H910.246C910.247 115.203 910.247 115.203 910.247 115.203H910.878C911.472 115.203 911.954 114.719 911.954 114.123C911.954 113.685 911.694 113.307 911.319 113.138L911.309 110.545C911.689 110.379 911.954 109.998 911.954 109.556C911.954 108.96 911.472 108.476 910.878 108.476H910.23C910.229 108.476 910.229 108.476 910.228 108.476ZM914.285 108.476H913.693C913.099 108.476 912.617 108.96 912.617 109.556C912.617 109.979 912.86 110.346 913.213 110.523L913.224 113.151C912.865 113.326 912.617 113.696 912.617 114.123C912.617 114.719 913.099 115.203 913.693 115.203H914.304C914.304 115.203 914.304 115.203 914.305 115.203H914.935C915.53 115.203 916.011 114.719 916.011 114.123C916.011 113.685 915.751 113.307 915.377 113.138L915.366 110.545C915.746 110.379 916.011 109.998 916.011 109.556C916.011 108.96 915.53 108.476 914.935 108.476H914.287C914.286 108.476 914.286 108.476 914.285 108.476ZM918.343 108.476H917.75C917.156 108.476 916.674 108.96 916.674 109.556C916.674 109.979 916.917 110.346 917.271 110.523L917.281 113.151C916.922 113.326 916.674 113.696 916.674 114.123C916.674 114.719 917.156 115.203 917.75 115.203H918.361C918.361 115.203 918.361 115.203 918.362 115.203H918.992C919.587 115.203 920.069 114.719 920.069 114.123C920.069 113.685 919.808 113.307 919.434 113.138L919.423 110.545C919.803 110.379 920.069 109.998 920.069 109.556C920.069 108.96 919.587 108.476 918.992 108.476H918.344C918.343 108.476 918.343 108.476 918.343 108.476ZM179.709 109.811C179.713 110.407 179.234 110.894 178.64 110.897L174.086 110.925C173.492 110.929 173.007 110.448 173.003 109.852C172.999 109.256 173.478 108.77 174.073 108.766L178.627 108.738C179.221 108.735 179.706 109.215 179.709 109.811ZM191.152 109.811C191.155 110.407 190.677 110.894 190.082 110.897L185.528 110.925C184.934 110.929 184.449 110.448 184.445 109.852C184.442 109.256 184.921 108.77 185.515 108.766L190.069 108.738C190.663 108.735 191.148 109.215 191.152 109.811ZM365.012 110.299C365.016 110.896 364.537 111.382 363.942 111.385L359.389 111.413C358.794 111.417 358.309 110.937 358.306 110.34C358.302 109.744 358.781 109.258 359.376 109.254L363.929 109.227C364.524 109.223 365.009 109.703 365.012 110.299ZM376.372 110.299C376.376 110.896 375.897 111.382 375.302 111.385L370.749 111.413C370.154 111.417 369.669 110.937 369.666 110.34C369.662 109.744 370.141 109.258 370.736 109.254L375.289 109.227C375.884 109.223 376.368 109.703 376.372 110.299ZM559.298 110.885C559.298 110.289 559.78 109.805 560.375 109.805H562.419C563.013 109.805 563.495 110.289 563.495 110.885C563.495 111.481 563.013 111.964 562.419 111.964H560.375C559.78 111.964 559.298 111.481 559.298 110.885ZM525.436 110.965C525.439 111.561 524.96 112.048 524.366 112.051L519.812 112.079C519.218 112.083 518.733 111.602 518.729 111.006C518.726 110.41 519.205 109.924 519.799 109.92L524.353 109.892C524.947 109.889 525.432 110.369 525.436 110.965ZM533.66 110.965C533.663 111.561 533.184 112.048 532.59 112.051L528.036 112.079C527.442 112.083 526.957 111.602 526.953 111.006C526.95 110.41 527.429 109.924 528.023 109.92L532.577 109.892C533.171 109.889 533.656 110.369 533.66 110.965ZM541.947 110.965C541.951 111.561 541.472 112.048 540.878 112.051L536.324 112.079C535.73 112.083 535.245 111.602 535.241 111.006C535.238 110.41 535.716 109.924 536.311 109.92L540.865 109.892C541.459 109.889 541.944 110.369 541.947 110.965ZM550.267 110.965C550.271 111.561 549.792 112.048 549.197 112.051L544.644 112.079C544.049 112.083 543.564 111.602 543.561 111.006C543.557 110.41 544.036 109.924 544.631 109.92L549.184 109.892C549.779 109.889 550.263 110.369 550.267 110.965ZM729.394 111.384C729.398 111.98 728.919 112.467 728.324 112.47L723.771 112.498C723.176 112.502 722.691 112.021 722.688 111.425C722.684 110.829 723.163 110.343 723.758 110.339L728.311 110.311C728.906 110.308 729.391 110.788 729.394 111.384ZM927.525 111.819C927.529 112.415 927.05 112.901 926.455 112.905L921.902 112.933C921.307 112.937 920.822 112.457 920.819 111.86C920.815 111.264 921.294 110.778 921.888 110.774L926.442 110.746C927.037 110.742 927.521 111.223 927.525 111.819ZM936 111.819C936.004 112.415 935.525 112.901 934.93 112.905L930.377 112.933C929.782 112.937 929.297 112.457 929.294 111.86C929.29 111.264 929.769 110.778 930.363 110.774L934.917 110.746C935.511 110.742 935.996 111.223 936 111.819ZM258.418 149.888C258.418 149.292 258.9 148.808 259.495 148.808H260.736C261.331 148.808 261.813 149.292 261.813 149.888C261.813 150.33 261.547 150.711 261.168 150.877L261.178 153.47C261.552 153.639 261.813 154.017 261.813 154.455C261.813 155.051 261.331 155.535 260.736 155.535H259.495C258.9 155.535 258.418 155.051 258.418 154.455C258.418 154.028 258.666 153.658 259.025 153.483L259.015 150.855C258.661 150.678 258.418 150.311 258.418 149.888ZM278.478 149.888C278.478 149.292 278.96 148.808 279.555 148.808H280.797C281.391 148.808 281.873 149.292 281.873 149.888C281.873 150.33 281.608 150.711 281.228 150.877L281.238 153.47C281.612 153.639 281.873 154.017 281.873 154.455C281.873 155.051 281.391 155.535 280.797 155.535H279.555C278.96 155.535 278.478 155.051 278.478 154.455C278.478 154.028 278.726 153.658 279.085 153.483L279.075 150.855C278.721 150.678 278.478 150.311 278.478 149.888ZM282.265 149.888C282.265 149.292 282.747 148.808 283.341 148.808H284.583C285.178 148.808 285.66 149.292 285.66 149.888C285.66 150.33 285.394 150.711 285.014 150.877L285.025 153.47C285.399 153.639 285.66 154.017 285.66 154.455C285.66 155.051 285.178 155.535 284.583 155.535H283.341C282.747 155.535 282.265 155.051 282.265 154.455C282.265 154.028 282.513 153.658 282.872 153.483L282.862 150.855C282.508 150.678 282.265 150.311 282.265 149.888ZM440.016 150.384C440.016 149.788 440.497 149.305 441.092 149.305H442.334C442.928 149.305 443.41 149.788 443.41 150.384C443.41 150.827 443.145 151.207 442.765 151.374L442.775 153.967C443.15 154.136 443.41 154.513 443.41 154.952C443.41 155.548 442.928 156.031 442.334 156.031H441.092C440.497 156.031 440.016 155.548 440.016 154.952C440.016 154.524 440.263 154.155 440.623 153.98L440.612 151.351C440.259 151.174 440.016 150.808 440.016 150.384ZM459.877 150.384C459.877 149.788 460.359 149.305 460.953 149.305H462.195C462.79 149.305 463.271 149.788 463.271 150.384C463.271 150.827 463.006 151.207 462.626 151.374L462.637 153.967C463.011 154.136 463.271 154.513 463.271 154.952C463.271 155.548 462.79 156.031 462.195 156.031H460.953C460.359 156.031 459.877 155.548 459.877 154.952C459.877 154.524 460.125 154.155 460.484 153.98L460.473 151.351C460.12 151.174 459.877 150.808 459.877 150.384ZM463.844 150.384C463.844 149.788 464.326 149.305 464.92 149.305H466.162C466.756 149.305 467.238 149.788 467.238 150.384C467.238 150.827 466.973 151.207 466.593 151.374L466.604 153.967C466.978 154.136 467.238 154.513 467.238 154.952C467.238 155.548 466.756 156.031 466.162 156.031H464.92C464.326 156.031 463.844 155.548 463.844 154.952C463.844 154.524 464.092 154.155 464.451 153.98L464.44 151.351C464.087 151.174 463.844 150.808 463.844 150.384ZM467.901 150.384C467.901 149.788 468.383 149.305 468.977 149.305H470.219C470.814 149.305 471.295 149.788 471.295 150.384C471.295 150.827 471.03 151.207 470.65 151.374L470.661 153.967C471.035 154.136 471.295 154.513 471.295 154.952C471.295 155.548 470.814 156.031 470.219 156.031H468.977C468.383 156.031 467.901 155.548 467.901 154.952C467.901 154.524 468.149 154.155 468.508 153.98L468.498 151.351C468.144 151.174 467.901 150.808 467.901 150.384ZM615.527 152.136C615.527 151.539 616.009 151.056 616.603 151.056H617.845C618.44 151.056 618.922 151.539 618.922 152.136C618.922 152.578 618.656 152.958 618.276 153.125L618.287 155.718C618.661 155.887 618.922 156.264 618.922 156.703C618.922 157.299 618.44 157.782 617.845 157.782H616.603C616.009 157.782 615.527 157.299 615.527 156.703C615.527 156.275 615.775 155.906 616.134 155.731L616.124 153.102C615.77 152.925 615.527 152.559 615.527 152.136ZM619.539 152.136C619.539 151.539 620.021 151.056 620.615 151.056H621.857C622.452 151.056 622.934 151.539 622.934 152.136C622.934 152.578 622.668 152.958 622.288 153.125L622.299 155.718C622.673 155.887 622.934 156.264 622.934 156.703C622.934 157.299 622.452 157.782 621.857 157.782H620.615C620.021 157.782 619.539 157.299 619.539 156.703C619.539 156.275 619.787 155.906 620.146 155.731L620.136 153.102C619.782 152.925 619.539 152.559 619.539 152.136ZM623.641 152.136C623.641 151.539 624.123 151.056 624.718 151.056H625.959C626.554 151.056 627.036 151.539 627.036 152.136C627.036 152.578 626.77 152.958 626.391 153.125L626.401 155.718C626.775 155.887 627.036 156.264 627.036 156.703C627.036 157.299 626.554 157.782 625.959 157.782H624.718C624.123 157.782 623.641 157.299 623.641 156.703C623.641 156.275 623.889 155.906 624.248 155.731L624.238 153.102C623.884 152.925 623.641 152.559 623.641 152.136ZM627.698 152.136C627.698 151.539 628.18 151.056 628.775 151.056H630.017C630.611 151.056 631.093 151.539 631.093 152.136C631.093 152.578 630.828 152.958 630.448 153.125L630.458 155.718C630.832 155.887 631.093 156.264 631.093 156.703C631.093 157.299 630.611 157.782 630.017 157.782H628.775C628.18 157.782 627.698 157.299 627.698 156.703C627.698 156.275 627.946 155.906 628.305 155.731L628.295 153.102C627.941 152.925 627.698 152.559 627.698 152.136ZM639.148 152.136C639.148 151.539 639.63 151.056 640.225 151.056H641.467C642.061 151.056 642.543 151.539 642.543 152.136C642.543 152.578 642.278 152.958 641.898 153.125L641.908 155.718C642.282 155.887 642.543 156.264 642.543 156.703C642.543 157.299 642.061 157.782 641.467 157.782H640.225C639.63 157.782 639.148 157.299 639.148 156.703C639.148 156.275 639.396 155.906 639.756 155.731L639.745 153.102C639.391 152.925 639.148 152.559 639.148 152.136ZM643.341 152.136C643.341 151.539 643.823 151.056 644.417 151.056H645.659C646.253 151.056 646.735 151.539 646.735 152.136C646.735 152.578 646.47 152.958 646.09 153.125L646.101 155.718C646.475 155.887 646.735 156.264 646.735 156.703C646.735 157.299 646.253 157.782 645.659 157.782H644.417C643.823 157.782 643.341 157.299 643.341 156.703C643.341 156.275 643.589 155.906 643.948 155.731L643.937 153.102C643.584 152.925 643.341 152.559 643.341 152.136ZM647.488 152.136C647.488 151.539 647.97 151.056 648.564 151.056H649.806C650.401 151.056 650.883 151.539 650.883 152.136C650.883 152.578 650.617 152.958 650.237 153.125L650.248 155.718C650.622 155.887 650.883 156.264 650.883 156.703C650.883 157.299 650.401 157.782 649.806 157.782H648.564C647.97 157.782 647.488 157.299 647.488 156.703C647.488 156.275 647.736 155.906 648.095 155.731L648.085 153.102C647.731 152.925 647.488 152.559 647.488 152.136ZM269.045 152.151C269.049 152.747 268.57 153.233 267.976 153.237L263.422 153.265C262.827 153.269 262.343 152.788 262.339 152.192C262.335 151.596 262.814 151.11 263.409 151.106L267.963 151.078C268.557 151.074 269.042 151.555 269.045 152.151ZM277.333 152.151C277.337 152.747 276.858 153.233 276.263 153.237L271.71 153.265C271.115 153.269 270.63 152.788 270.627 152.192C270.623 151.596 271.102 151.11 271.696 151.106L276.25 151.078C276.845 151.074 277.329 151.555 277.333 152.151ZM450.572 152.647C450.576 153.244 450.097 153.73 449.503 153.734L444.949 153.761C444.354 153.765 443.87 153.285 443.866 152.688C443.862 152.092 444.341 151.606 444.936 151.602L449.49 151.575C450.084 151.571 450.569 152.051 450.572 152.647ZM458.912 152.647C458.916 153.244 458.437 153.73 457.842 153.734L453.289 153.761C452.694 153.765 452.209 153.285 452.206 152.688C452.202 152.092 452.681 151.606 453.275 151.602L457.829 151.575C458.424 151.571 458.908 152.051 458.912 152.647ZM787.542 152.709C787.542 152.112 788.024 151.629 788.618 151.629H789.86C790.454 151.629 790.936 152.112 790.936 152.709C790.936 153.151 790.671 153.531 790.291 153.698L790.301 156.291C790.676 156.46 790.936 156.837 790.936 157.276C790.936 157.872 790.454 158.355 789.86 158.355H788.618C788.024 158.355 787.542 157.872 787.542 157.276C787.542 156.848 787.789 156.479 788.149 156.304L788.138 153.675C787.785 153.498 787.542 153.132 787.542 152.709ZM791.367 152.709C791.367 152.112 791.849 151.629 792.443 151.629H793.685C794.28 151.629 794.761 152.112 794.761 152.709C794.761 153.151 794.496 153.531 794.116 153.698L794.127 156.291C794.501 156.46 794.761 156.837 794.761 157.276C794.761 157.872 794.28 158.355 793.685 158.355H792.443C791.849 158.355 791.367 157.872 791.367 157.276C791.367 156.848 791.615 156.479 791.974 156.304L791.963 153.675C791.61 153.498 791.367 153.132 791.367 152.709ZM828.023 152.709C828.023 152.112 828.505 151.629 829.099 151.629H830.341C830.936 151.629 831.417 152.112 831.417 152.709C831.417 153.151 831.152 153.531 830.772 153.698L830.783 156.291C831.157 156.46 831.417 156.837 831.417 157.276C831.417 157.872 830.936 158.355 830.341 158.355H829.099C828.505 158.355 828.023 157.872 828.023 157.276C828.023 156.848 828.271 156.479 828.63 156.304L828.619 153.675C828.266 153.498 828.023 153.132 828.023 152.709ZM831.848 152.709C831.848 152.112 832.33 151.629 832.924 151.629H834.166C834.761 151.629 835.242 152.112 835.242 152.709C835.242 153.151 834.977 153.531 834.597 153.698L834.608 156.291C834.982 156.46 835.242 156.837 835.242 157.276C835.242 157.872 834.761 158.355 834.166 158.355H832.924C832.33 158.355 831.848 157.872 831.848 157.276C831.848 156.848 832.096 156.479 832.455 156.304L832.445 153.675C832.091 153.498 831.848 153.132 831.848 152.709ZM638.164 154.399C638.167 154.995 637.688 155.481 637.094 155.485L632.54 155.513C631.946 155.516 631.461 155.036 631.457 154.44C631.454 153.843 631.933 153.357 632.527 153.354L637.081 153.326C637.675 153.322 638.16 153.803 638.164 154.399ZM802.295 154.972C802.299 155.568 801.82 156.054 801.225 156.058L796.672 156.086C796.077 156.089 795.592 155.609 795.589 155.013C795.585 154.416 796.064 153.93 796.658 153.927L801.212 153.899C801.807 153.895 802.291 154.376 802.295 154.972ZM810.59 154.972C810.593 155.568 810.114 156.054 809.52 156.058L804.966 156.086C804.372 156.089 803.887 155.609 803.883 155.013C803.88 154.416 804.359 153.93 804.953 153.927L809.507 153.899C810.101 153.895 810.586 154.376 810.59 154.972ZM818.884 154.972C818.888 155.568 818.409 156.054 817.814 156.058L813.261 156.086C812.666 156.089 812.181 155.609 812.178 155.013C812.174 154.416 812.653 153.93 813.248 153.927L817.801 153.899C818.396 153.895 818.881 154.376 818.884 154.972ZM827.179 154.972C827.182 155.568 826.703 156.054 826.109 156.058L821.555 156.086C820.961 156.089 820.476 155.609 820.472 155.013C820.469 154.416 820.948 153.93 821.542 153.927L826.096 153.899C826.69 153.895 827.175 154.376 827.179 154.972ZM842.686 154.972C842.69 155.568 842.211 156.054 841.616 156.058L837.062 156.086C836.468 156.089 835.983 155.609 835.98 155.013C835.976 154.416 836.455 153.93 837.049 153.927L841.603 153.899C842.197 153.895 842.682 154.376 842.686 154.972ZM851.521 154.972C851.525 155.568 851.046 156.054 850.452 156.058L845.898 156.086C845.304 156.089 844.819 155.609 844.815 155.013C844.812 154.416 845.29 153.93 845.885 153.927L850.439 153.899C851.033 153.895 851.518 154.376 851.521 154.972Z" fill="white"/>
<path fill-rule="evenodd" clip-rule="evenodd" d="M646.38 2.78263C646.38 2.78272 646.38 2.78253 646.38 2.78263ZM646.465 2.93717L653.375 15.4949L649.171 17.7399L642.261 5.18213L646.465 2.93717ZM648.938 1.41545C648.227 0.123761 646.588 -0.39009 645.252 0.322516L645.251 0.322866L640.7 2.75339C639.363 3.46748 638.906 5.10269 639.617 6.39397L646.697 19.2617C647.408 20.5534 649.047 21.0671 650.383 20.3545L654.935 17.9237C656.273 17.2096 656.729 15.5742 656.019 14.2831L648.938 1.41545ZM625.33 3.41545C625.712 2.96051 626.338 2.78323 626.908 2.96888C635.405 5.74064 640.978 9.50012 643.736 14.6687C646.5 19.8471 646.249 26.0829 643.953 33.3582C643.78 33.9064 643.292 34.3 642.712 34.3589C642.133 34.4177 641.574 34.1303 641.291 33.6284L639.759 30.9095L613.995 30.7036C613.46 30.6993 612.971 30.4067 612.721 29.9414C612.47 29.4761 612.499 28.9129 612.795 28.4746L626.753 7.82297L625.178 5.0264C624.887 4.50989 624.947 3.87039 625.33 3.41545ZM629.742 7.21878C629.733 7.20188 629.723 7.18514 629.714 7.16857L629.629 7.01867C635.618 9.46875 639.267 12.4574 641.16 16.0038C643.028 19.5039 643.316 23.7937 642.094 29.1452L641.905 28.8096C641.897 28.7946 641.889 28.7797 641.88 28.765L629.742 7.21878ZM628.343 10.6449L632.279 17.6323L618.54 25.1491L628.343 10.6449ZM619.545 27.8797L638.136 28.0283L633.692 20.1399L619.545 27.8797Z" fill="white"/>
</svg>
