<svg width="3626" height="958" viewBox="0 0 3626 958" fill="none" xmlns="http://www.w3.org/2000/svg">
<path d="M1133.93 40.6661C1298.96 47.8711 1782.73 107.006 1986.65 624.272C1986.66 627.742 1988.23 632.459 1984.04 635.559C1972.43 644.151 1946.07 658.298 1940.89 660.865C1937.51 662.543 1934.27 667.421 1919.67 647.056C1907.25 629.746 1853.86 516.695 1714.11 413.505C1576.1 311.592 1371.16 251.559 1223.8 251.192C1226.56 404.424 1226.48 856.046 1224.02 908.978C1222.94 912.371 1223.17 920.264 1207.29 920.314C1190.53 921.243 1135.43 919.686 1121.7 919.737C1109.34 919.783 1103.14 912.477 1103.1 899.845C1103.05 887.699 1103.21 87.4345 1103.1 57.2552C1103.03 38.1714 1130.56 40.5191 1133.93 40.6661Z" fill="white"/>
<path d="M3624.92 66.1517C3617.71 231.187 3558.58 714.955 3041.31 918.873C3037.84 918.886 3033.12 920.456 3030.02 916.267C3021.43 904.659 3007.28 878.297 3004.72 873.12C3003.04 869.735 2998.16 866.499 3018.53 851.892C3035.84 839.477 3148.89 786.083 3252.08 646.337C3353.99 508.322 3414.02 303.386 3414.39 156.023C3261.16 158.78 2957.17 158.536 2904.24 156.078C2900.85 154.995 2892.95 155.232 2892.9 139.353C2891.97 122.586 2893.53 67.4841 2893.48 53.7573C2893.43 41.3998 2900.74 35.2009 2913.37 35.1558C2925.52 35.1124 3578.15 35.4395 3608.33 35.3267C3627.41 35.2554 3625.06 62.7828 3624.92 66.1517Z" fill="white"/>
<path d="M2170.25 138.76C2164.15 134.355 2007.65 44.6805 2000.16 40.7276C1988.91 34.798 1987.59 47.5523 1986.79 61.0004C1985.14 88.6401 2000.03 380.423 2168.82 609.637C2334.77 834.986 2557.89 911.075 2569.13 917.004C2576.63 920.959 2580.78 914.83 2583.53 909.155C2586.28 903.48 2599.58 873.663 2603.25 866.096C2606.92 858.529 2604.11 857.044 2599.43 854.575C2590.06 849.634 2404.69 766.113 2288.49 523.068C2202.17 342.516 2195.46 200.762 2192.92 174.477C2190.88 153.349 2180.92 146.467 2170.25 138.76Z" fill="white"/>
<path d="M2357.26 150.077C2349.45 149.835 2345.53 156.543 2346.22 165.316C2344.68 195.737 2345.55 249.903 2346.1 256.925C2346.79 265.701 2352.86 269.974 2362.33 270.267C2371.98 270.566 2706.93 274.613 2716.21 273.21C2725.91 271.742 2727.2 264.274 2727.39 257.778C2727.56 251.949 2729.64 172.251 2728.75 166.83C2727.86 161.408 2727.49 155.091 2717.14 155.014C2712.32 154.978 2365.06 150.318 2357.26 150.077Z" fill="white"/>
<path d="M2353.87 352.296C2346.06 352.055 2342.14 358.763 2342.83 367.536C2341.28 397.956 2342.16 452.123 2342.71 459.144C2343.4 467.921 2349.47 472.194 2358.94 472.487C2368.59 472.786 2703.54 476.832 2712.81 475.429C2722.52 473.961 2723.8 466.494 2724 459.998C2724.17 454.169 2726.25 374.471 2725.36 369.05C2724.47 363.628 2724.1 357.311 2713.75 357.234C2708.93 357.198 2361.67 352.538 2353.87 352.296Z" fill="white"/>
<mask id="mask0_23_4444" style="mask-type:luminance" maskUnits="userSpaceOnUse" x="34" y="34" width="216" height="216">
<path fill-rule="evenodd" clip-rule="evenodd" d="M141.784 34.4878C113.336 34.5132 86.062 45.8353 65.9595 65.9648C45.8569 86.0943 34.5713 113.383 34.584 141.832C34.5967 170.28 45.9067 197.559 66.0272 217.67C86.1477 237.782 113.432 249.08 141.88 249.08C170.328 249.08 197.612 237.782 217.733 217.67C237.853 197.559 249.163 170.28 249.176 141.832C249.189 113.383 237.903 86.0943 217.8 65.9648C197.698 45.8353 170.424 34.5132 141.976 34.4878H141.784ZM141.784 65.1438C162.102 65.1692 181.578 73.2615 195.932 87.6419C210.285 102.022 218.341 121.514 218.328 141.832C218.316 162.15 210.236 181.631 195.864 195.993C181.493 210.356 162.006 218.424 141.688 218.424C121.37 218.424 101.884 210.356 87.5127 195.993C73.1413 181.631 65.0611 162.15 65.0484 141.832C65.0357 121.514 73.0915 102.022 87.4449 87.6419C101.798 73.2615 121.275 65.1692 141.593 65.1438H141.784Z" fill="white"/>
</mask>
<g mask="url(#mask0_23_4444)">
<path d="M249.08 34.4878H34.4883V249.08H249.08V34.4878Z" fill="white"/>
</g>
<mask id="mask1_23_4444" style="mask-type:luminance" maskUnits="userSpaceOnUse" x="95" y="95" width="93" height="93">
<path d="M141.784 187.768C167.18 187.768 187.768 167.18 187.768 141.784C187.768 116.388 167.18 95.7998 141.784 95.7998C116.388 95.7998 95.8 116.388 95.8 141.784C95.8 167.18 116.388 187.768 141.784 187.768Z" fill="white"/>
</mask>
<g mask="url(#mask1_23_4444)">
<path d="M187.768 95.7998H95.8V187.768H187.768V95.7998Z" fill="white"/>
</g>
<mask id="mask2_23_4444" style="mask-type:luminance" maskUnits="userSpaceOnUse" x="708" y="34" width="216" height="216">
<path fill-rule="evenodd" clip-rule="evenodd" d="M923.512 141.784C923.486 113.336 912.164 86.062 892.035 65.9594C871.905 45.8569 844.616 34.5713 816.168 34.584C787.719 34.5967 760.441 45.9066 740.329 66.0271C720.218 86.1477 708.92 113.432 708.92 141.88C708.92 170.328 720.218 197.612 740.329 217.733C760.441 237.853 787.719 249.163 816.168 249.176C844.616 249.189 871.905 237.903 892.035 217.8C912.164 197.698 923.486 170.424 923.512 141.976V141.784ZM892.856 141.784C892.83 162.102 884.738 181.578 870.358 195.932C855.977 210.285 836.486 218.341 816.168 218.328C795.85 218.316 776.369 210.235 762.006 195.864C747.644 181.493 739.576 162.006 739.576 141.688C739.576 121.37 747.644 101.884 762.006 87.5126C776.369 73.1412 795.85 65.0611 816.168 65.0484C836.486 65.0357 855.977 73.0915 870.358 87.4449C884.738 101.798 892.83 121.275 892.856 141.593V141.784Z" fill="white"/>
</mask>
<g mask="url(#mask2_23_4444)">
<path d="M923.512 34.4883H708.92V249.08H923.512V34.4883Z" fill="white"/>
</g>
<mask id="mask3_23_4444" style="mask-type:luminance" maskUnits="userSpaceOnUse" x="770" y="95" width="93" height="93">
<path d="M770.232 141.784C770.232 167.18 790.819 187.768 816.216 187.768C841.612 187.768 862.2 167.18 862.2 141.784C862.2 116.388 841.612 95.7998 816.216 95.7998C790.819 95.7998 770.232 116.388 770.232 141.784Z" fill="white"/>
</mask>
<g mask="url(#mask3_23_4444)">
<path d="M862.2 95.7998H770.232V187.768H862.2V95.7998Z" fill="white"/>
</g>
<mask id="mask4_23_4444" style="mask-type:luminance" maskUnits="userSpaceOnUse" x="34" y="708" width="216" height="216">
<path fill-rule="evenodd" clip-rule="evenodd" d="M34.488 816.216C34.5134 844.664 45.8356 871.938 65.9651 892.041C86.0946 912.143 113.383 923.429 141.832 923.416C170.28 923.403 197.559 912.093 217.671 891.973C237.782 871.852 249.08 844.568 249.08 816.12C249.08 787.672 237.782 760.388 217.671 740.267C197.559 720.147 170.28 708.837 141.832 708.824C113.383 708.811 86.0946 720.097 65.9651 740.2C45.8356 760.302 34.5134 787.576 34.488 816.024V816.216ZM65.144 816.216C65.1694 795.898 73.2617 776.422 87.6421 762.068C102.023 747.715 121.514 739.659 141.832 739.672C162.15 739.684 181.631 747.764 195.994 762.136C210.356 776.507 218.424 795.994 218.424 816.312C218.424 836.63 210.356 856.116 195.994 870.487C181.631 884.859 162.15 892.939 141.832 892.952C121.514 892.964 102.023 884.909 87.6421 870.555C73.2617 856.202 65.1694 836.725 65.144 816.407V816.216Z" fill="white"/>
</mask>
<g mask="url(#mask4_23_4444)">
<path d="M249.08 708.92H34.488V923.512H249.08V708.92Z" fill="white"/>
</g>
<mask id="mask5_23_4444" style="mask-type:luminance" maskUnits="userSpaceOnUse" x="95" y="770" width="93" height="93">
<path d="M187.768 816.216C187.768 790.819 167.18 770.232 141.784 770.232C116.388 770.232 95.8 790.819 95.8 816.216C95.8 841.612 116.388 862.2 141.784 862.2C167.18 862.2 187.768 841.612 187.768 816.216Z" fill="white"/>
</mask>
<g mask="url(#mask5_23_4444)">
<path d="M187.768 770.232H95.8V862.2H187.768V770.232Z" fill="white"/>
</g>
<mask id="mask6_23_4444" style="mask-type:luminance" maskUnits="userSpaceOnUse" x="34" y="34" width="890" height="890">
<path d="M341.048 65.144V34.488H325.72C321.655 34.488 317.756 36.103 314.882 38.9775C312.007 41.8521 310.392 45.7508 310.392 49.816C310.392 53.8813 312.007 57.78 314.882 60.6546C317.756 63.5291 321.655 65.144 325.72 65.144" fill="white"/>
<path d="M341.048 34.4883V65.1443H371.704C371.704 57.0138 368.474 49.2163 362.725 43.4672C356.976 37.7181 349.179 34.4883 341.048 34.4883Z" fill="white"/>
<path d="M479 65.1443C487.465 65.1443 494.328 58.2817 494.328 49.8163C494.328 41.3509 487.465 34.4883 479 34.4883C470.534 34.4883 463.672 41.3509 463.672 49.8163C463.672 58.2817 470.534 65.1443 479 65.1443Z" fill="white"/>
<path d="M555.64 65.144V34.488H540.312C536.247 34.488 532.348 36.103 529.474 38.9775C526.599 41.8521 524.984 45.7508 524.984 49.816C524.984 53.8813 526.599 57.78 529.474 60.6546C532.348 63.5291 536.247 65.144 540.312 65.144" fill="white"/>
<path d="M555.64 34.4883V65.1443H586.296C586.296 57.0138 583.066 49.2163 577.317 43.4672C571.568 37.7181 563.771 34.4883 555.64 34.4883Z" fill="white"/>
<path d="M616.952 65.144H647.608V34.488C639.478 34.488 631.68 37.7178 625.931 43.467C620.182 49.2161 616.952 57.0136 616.952 65.144Z" fill="white"/>
<path d="M647.608 34.4883V65.1443H662.936C667.001 65.1443 670.9 63.5294 673.774 60.6548C676.649 57.7803 678.264 53.8815 678.264 49.8163C678.264 45.751 676.649 41.8523 673.774 38.9777C670.9 36.1032 667.001 34.4883 662.936 34.4883" fill="white"/>
<path d="M295.064 95.8C303.53 95.8 310.392 88.9375 310.392 80.472C310.392 72.0066 303.53 65.144 295.064 65.144C286.599 65.144 279.736 72.0066 279.736 80.472C279.736 88.9375 286.599 95.8 295.064 95.8Z" fill="white"/>
<path d="M371.704 65.144H341.048V95.8H371.704V65.144Z" fill="white"/>
<path d="M402.36 65.144H371.704V95.8H402.36V65.144Z" fill="white"/>
<path d="M433.016 65.144H402.36V95.8H433.016V65.144Z" fill="white"/>
<path d="M433.016 65.144V95.8H448.344C452.409 95.8 456.308 94.1851 459.183 91.3106C462.057 88.436 463.672 84.5373 463.672 80.472C463.672 76.4068 462.057 72.5081 459.183 69.6335C456.308 66.759 452.409 65.144 448.344 65.144" fill="white"/>
<path d="M586.296 65.144H555.64V80.472C555.64 84.5373 557.255 88.436 560.129 91.3106C563.004 94.1851 566.903 95.8 570.968 95.8C575.033 95.8 578.932 94.1851 581.806 91.3106C584.681 88.436 586.296 84.5373 586.296 80.472" fill="white"/>
<path d="M647.608 65.144H616.952V95.8H647.608V65.144Z" fill="white"/>
<path d="M310.392 126.456H341.048V95.8001C332.918 95.8001 325.12 99.0299 319.371 104.779C313.622 110.528 310.392 118.326 310.392 126.456Z" fill="white"/>
<path d="M371.704 95.8003H341.048V126.456C349.179 126.456 356.976 123.226 362.725 117.477C368.474 111.728 371.704 103.931 371.704 95.8003Z" fill="white"/>
<path d="M494.328 126.456V95.8001H479C474.935 95.8001 471.036 97.415 468.162 100.29C465.287 103.164 463.672 107.063 463.672 111.128C463.672 115.193 465.287 119.092 468.162 121.967C471.036 124.841 474.935 126.456 479 126.456" fill="white"/>
<path d="M524.984 95.8003H494.328V126.456H524.984V95.8003Z" fill="white"/>
<path d="M524.984 95.8003V126.456H540.312C544.377 126.456 548.276 124.841 551.15 121.967C554.025 119.092 555.64 115.194 555.64 111.128C555.64 107.063 554.025 103.164 551.15 100.29C548.276 97.4152 544.377 95.8003 540.312 95.8003" fill="white"/>
<path d="M647.608 95.8003H616.952V111.128C616.952 115.194 618.567 119.092 621.441 121.967C624.316 124.841 628.215 126.456 632.28 126.456C636.345 126.456 640.244 124.841 643.118 121.967C645.993 119.092 647.608 115.194 647.608 111.128" fill="white"/>
<path d="M279.736 157.112H310.392V126.456C302.262 126.456 294.464 129.686 288.715 135.435C282.966 141.184 279.736 148.982 279.736 157.112Z" fill="white"/>
<path d="M341.048 126.456H310.392V157.112H341.048V126.456Z" fill="white"/>
<path d="M387.032 157.112C395.498 157.112 402.36 150.249 402.36 141.784C402.36 133.319 395.498 126.456 387.032 126.456C378.567 126.456 371.704 133.319 371.704 141.784C371.704 150.249 378.567 157.112 387.032 157.112Z" fill="white"/>
<path d="M524.984 126.456H494.328V157.112H524.984V126.456Z" fill="white"/>
<path d="M586.296 157.112V126.456H570.968C566.903 126.456 563.004 128.071 560.129 130.946C557.255 133.82 555.64 137.719 555.64 141.784C555.64 145.85 557.255 149.748 560.129 152.623C563.004 155.497 566.903 157.112 570.968 157.112" fill="white"/>
<path d="M586.296 126.456V157.112H616.952C616.952 148.982 613.722 141.184 607.973 135.435C602.224 129.686 594.426 126.456 586.296 126.456Z" fill="white"/>
<path d="M310.392 187.769V157.113H279.736C279.736 165.243 282.966 173.04 288.715 178.79C294.464 184.539 302.262 187.769 310.392 187.769Z" fill="white"/>
<path d="M341.048 157.112H310.392V187.768H341.048V157.112Z" fill="white"/>
<path d="M463.672 187.769H494.328V157.113C486.197 157.113 478.4 160.342 472.651 166.091C466.902 171.841 463.672 179.638 463.672 187.769Z" fill="white"/>
<path d="M524.984 157.112H494.328V187.768H524.984V157.112Z" fill="white"/>
<path d="M524.984 157.112V187.768H540.312C544.377 187.768 548.276 186.153 551.15 183.279C554.025 180.404 555.64 176.506 555.64 172.44C555.64 168.375 554.025 164.476 551.15 161.602C548.276 158.727 544.377 157.112 540.312 157.112" fill="white"/>
<path d="M616.952 187.769V157.113H586.296C586.296 165.243 589.526 173.04 595.275 178.79C601.024 184.539 608.822 187.769 616.952 187.769Z" fill="white"/>
<path d="M616.952 157.112V187.768H632.28C636.345 187.768 640.244 186.153 643.119 183.279C645.993 180.404 647.608 176.506 647.608 172.44C647.608 168.375 645.993 164.476 643.119 161.602C640.244 158.727 636.345 157.112 632.28 157.112" fill="white"/>
<path d="M341.048 187.769H310.392V203.097C310.392 207.162 312.007 211.061 314.882 213.935C317.756 216.81 321.655 218.425 325.72 218.425C329.785 218.425 333.684 216.81 336.559 213.935C339.433 211.061 341.048 207.162 341.048 203.097" fill="white"/>
<path d="M402.36 218.424V187.768H387.032C382.967 187.768 379.068 189.383 376.193 192.258C373.319 195.132 371.704 199.031 371.704 203.096C371.704 207.162 373.319 211.06 376.193 213.935C379.068 216.809 382.967 218.424 387.032 218.424" fill="white"/>
<path d="M402.36 187.769V218.425H433.016C433.016 210.294 429.786 202.497 424.037 196.747C418.288 190.998 410.49 187.769 402.36 187.769Z" fill="white"/>
<path d="M494.328 187.769H463.672V218.425H494.328V187.769Z" fill="white"/>
<path d="M524.984 187.769H494.328V218.425C502.458 218.425 510.256 215.195 516.005 209.446C521.754 203.697 524.984 195.899 524.984 187.769Z" fill="white"/>
<path d="M647.608 218.424H678.264V203.096C678.264 199.031 676.649 195.132 673.774 192.258C670.9 189.383 667.001 187.768 662.936 187.768C658.871 187.768 654.972 189.383 652.097 192.258C649.223 195.132 647.608 199.031 647.608 203.096" fill="white"/>
<path d="M279.736 249.081H310.392V233.753C310.392 229.687 308.777 225.789 305.903 222.914C303.028 220.039 299.129 218.425 295.064 218.425C290.999 218.425 287.1 220.039 284.226 222.914C281.351 225.789 279.736 229.687 279.736 233.753" fill="white"/>
<path d="M356.376 249.08C364.842 249.08 371.704 242.218 371.704 233.752C371.704 225.287 364.842 218.424 356.376 218.424C347.911 218.424 341.048 225.287 341.048 233.752C341.048 242.218 347.911 249.08 356.376 249.08Z" fill="white"/>
<path d="M433.016 218.424H402.36V249.08H433.016V218.424Z" fill="white"/>
<path d="M494.328 218.424H463.672V249.08H494.328V218.424Z" fill="white"/>
<path d="M524.984 249.081H555.64V233.753C555.64 229.687 554.025 225.789 551.15 222.914C548.276 220.039 544.377 218.425 540.312 218.425C536.247 218.425 532.348 220.039 529.473 222.914C526.599 225.789 524.984 229.687 524.984 233.753" fill="white"/>
<path d="M586.296 249.081H616.952V233.753C616.952 229.687 615.337 225.789 612.462 222.914C609.588 220.039 605.689 218.425 601.624 218.425C597.559 218.425 593.66 220.039 590.785 222.914C587.911 225.789 586.296 229.687 586.296 233.753" fill="white"/>
<path d="M678.264 218.424H647.608V233.752C647.608 237.818 649.223 241.716 652.098 244.591C654.972 247.465 658.871 249.08 662.936 249.08C667.001 249.08 670.9 247.465 673.775 244.591C676.649 241.716 678.264 237.818 678.264 233.752" fill="white"/>
<path d="M310.392 249.081H279.736V279.737H310.392V249.081Z" fill="white"/>
<path d="M310.392 249.081V279.737H325.72C329.785 279.737 333.684 278.122 336.559 275.247C339.433 272.373 341.048 268.474 341.048 264.409C341.048 260.343 339.433 256.445 336.559 253.57C333.684 250.695 329.785 249.081 325.72 249.081" fill="white"/>
<path d="M433.016 249.081H402.36V279.737H433.016V249.081Z" fill="white"/>
<path d="M494.328 249.081H463.672V279.737H494.328V249.081Z" fill="white"/>
<path d="M555.64 279.736V249.08H524.984C524.984 257.211 528.214 265.008 533.963 270.757C539.712 276.507 547.51 279.736 555.64 279.736Z" fill="white"/>
<path d="M586.296 249.081H555.64V279.737H586.296V249.081Z" fill="white"/>
<path d="M616.952 249.081H586.296V279.737C594.427 279.737 602.224 276.507 607.973 270.758C613.722 265.009 616.952 257.211 616.952 249.081Z" fill="white"/>
<path d="M65.144 310.393H95.8V295.065C95.8 290.999 94.1851 287.101 91.3106 284.226C88.436 281.351 84.5373 279.737 80.472 279.737C76.4068 279.737 72.5081 281.351 69.6335 284.226C66.7589 287.101 65.144 290.999 65.144 295.065" fill="white"/>
<path d="M126.456 310.393H157.112V279.737C148.982 279.737 141.184 282.966 135.435 288.716C129.686 294.465 126.456 302.262 126.456 310.393Z" fill="white"/>
<path d="M187.768 279.736H157.112V310.392H187.768V279.736Z" fill="white"/>
<path d="M218.424 279.736H187.768V310.392H218.424V279.736Z" fill="white"/>
<path d="M218.424 279.736V310.392H233.752C237.817 310.392 241.716 308.777 244.591 305.903C247.465 303.028 249.08 299.13 249.08 295.064C249.08 290.999 247.465 287.1 244.591 284.226C241.716 281.351 237.817 279.736 233.752 279.736" fill="white"/>
<path d="M310.392 279.736H279.736V310.392H310.392V279.736Z" fill="white"/>
<path d="M433.016 310.393V279.737H402.36C402.36 287.867 405.59 295.665 411.339 301.414C417.088 307.163 424.886 310.393 433.016 310.393Z" fill="white"/>
<path d="M463.672 279.736H433.016V310.392H463.672V279.736Z" fill="white"/>
<path d="M494.328 279.736H463.672V310.392H494.328V279.736Z" fill="white"/>
<path d="M494.328 279.736V310.392H509.656C513.721 310.392 517.62 308.777 520.495 305.903C523.369 303.028 524.984 299.13 524.984 295.064C524.984 290.999 523.369 287.1 520.495 284.226C517.62 281.351 513.721 279.736 509.656 279.736" fill="white"/>
<path d="M632.28 310.392C640.746 310.392 647.608 303.53 647.608 295.064C647.608 286.599 640.746 279.736 632.28 279.736C623.815 279.736 616.952 286.599 616.952 295.064C616.952 303.53 623.815 310.392 632.28 310.392Z" fill="white"/>
<path d="M678.264 310.393H708.92V279.737C700.79 279.737 692.992 282.966 687.243 288.715C681.494 294.465 678.264 302.262 678.264 310.393Z" fill="white"/>
<path d="M708.92 279.736V310.392H724.248C728.313 310.392 732.212 308.777 735.086 305.903C737.961 303.028 739.576 299.13 739.576 295.064C739.576 290.999 737.961 287.1 735.086 284.226C732.212 281.351 728.313 279.736 724.248 279.736" fill="white"/>
<path d="M770.232 310.393H800.888V279.737C792.757 279.737 784.96 282.966 779.211 288.715C773.462 294.465 770.232 302.262 770.232 310.393Z" fill="white"/>
<path d="M800.888 279.736V310.392H816.216C820.281 310.392 824.18 308.777 827.055 305.903C829.929 303.028 831.544 299.13 831.544 295.064C831.544 290.999 829.929 287.1 827.055 284.226C824.18 281.351 820.281 279.736 816.216 279.736" fill="white"/>
<path d="M862.2 310.393H892.856V295.065C892.856 290.999 891.241 287.101 888.367 284.226C885.492 281.351 881.593 279.737 877.528 279.737C873.463 279.737 869.564 281.351 866.69 284.226C863.815 287.101 862.2 290.999 862.2 295.065" fill="white"/>
<path d="M95.8 341.048V310.392H65.144C65.144 318.523 68.3739 326.32 74.123 332.069C79.8721 337.819 87.6696 341.048 95.8 341.048Z" fill="white"/>
<path d="M126.456 310.393H95.8V341.049H126.456V310.393Z" fill="white"/>
<path d="M157.112 310.393H126.456V341.049H157.112V310.393Z" fill="white"/>
<path d="M187.768 310.393H157.112V341.049H187.768V310.393Z" fill="white"/>
<path d="M218.424 310.393H187.768V341.049H218.424V310.393Z" fill="white"/>
<path d="M249.08 341.048H279.736V310.392C271.606 310.392 263.808 313.622 258.059 319.371C252.31 325.12 249.08 332.918 249.08 341.048Z" fill="white"/>
<path d="M310.392 310.393H279.736V341.049H310.392V310.393Z" fill="white"/>
<path d="M310.392 310.393V341.049H325.72C329.785 341.049 333.684 339.434 336.559 336.559C339.433 333.685 341.048 329.786 341.048 325.721C341.048 321.655 339.433 317.757 336.559 314.882C333.684 312.007 329.785 310.393 325.72 310.393" fill="white"/>
<path d="M708.92 310.393H678.264V341.049H708.92V310.393Z" fill="white"/>
<path d="M770.232 341.048V310.392H754.904C750.839 310.392 746.94 312.007 744.065 314.882C741.191 317.756 739.576 321.655 739.576 325.72C739.576 329.786 741.191 333.684 744.065 336.559C746.94 339.433 750.839 341.048 754.904 341.048" fill="white"/>
<path d="M800.888 310.393H770.232V341.049H800.888V310.393Z" fill="white"/>
<path d="M892.856 310.393H862.2V325.721C862.2 329.786 863.815 333.685 866.689 336.559C869.564 339.434 873.463 341.049 877.528 341.049C881.593 341.049 885.492 339.434 888.367 336.559C891.241 333.685 892.856 329.786 892.856 325.721" fill="white"/>
<path d="M218.424 371.705V341.049H187.768C187.768 349.179 190.998 356.977 196.747 362.726C202.496 368.475 210.294 371.705 218.424 371.705Z" fill="white"/>
<path d="M249.08 341.048H218.424V371.704H249.08V341.048Z" fill="white"/>
<path d="M279.736 341.048H249.08V371.704H279.736V341.048Z" fill="white"/>
<path d="M310.392 341.048H279.736V371.704H310.392V341.048Z" fill="white"/>
<path d="M616.952 371.705H647.608V341.049C639.478 341.049 631.68 344.278 625.931 350.028C620.182 355.777 616.952 363.574 616.952 371.705Z" fill="white"/>
<path d="M678.264 341.048H647.608V371.704H678.264V341.048Z" fill="white"/>
<path d="M708.92 341.048H678.264V371.704H708.92V341.048Z" fill="white"/>
<path d="M708.92 341.048V371.704H724.248C728.313 371.704 732.212 370.089 735.086 367.215C737.961 364.34 739.576 360.442 739.576 356.376C739.576 352.311 737.961 348.412 735.086 345.538C732.212 342.663 728.313 341.048 724.248 341.048" fill="white"/>
<path d="M800.888 341.048H770.232V371.704H800.888V341.048Z" fill="white"/>
<path d="M831.544 341.048H800.888V371.704H831.544V341.048Z" fill="white"/>
<path d="M831.544 341.048V371.704H846.872C850.937 371.704 854.836 370.089 857.71 367.215C860.585 364.34 862.2 360.442 862.2 356.376C862.2 352.311 860.585 348.412 857.71 345.538C854.836 342.663 850.937 341.048 846.872 341.048" fill="white"/>
<path d="M49.816 402.361C58.2815 402.361 65.144 395.498 65.144 387.033C65.144 378.567 58.2815 371.705 49.816 371.705C41.3506 371.705 34.488 378.567 34.488 387.033C34.488 395.498 41.3506 402.361 49.816 402.361Z" fill="white"/>
<path d="M111.128 402.361C119.593 402.361 126.456 395.498 126.456 387.033C126.456 378.567 119.593 371.705 111.128 371.705C102.663 371.705 95.8 378.567 95.8 387.033C95.8 395.498 102.663 402.361 111.128 402.361Z" fill="white"/>
<path d="M172.44 402.361C180.905 402.361 187.768 395.498 187.768 387.033C187.768 378.567 180.905 371.705 172.44 371.705C163.975 371.705 157.112 378.567 157.112 387.033C157.112 395.498 163.975 402.361 172.44 402.361Z" fill="white"/>
<path d="M310.392 371.705H279.736V387.033C279.736 391.098 281.351 394.997 284.226 397.871C287.1 400.746 290.999 402.361 295.064 402.361C299.129 402.361 303.028 400.746 305.903 397.871C308.777 394.997 310.392 391.098 310.392 387.033" fill="white"/>
<path d="M647.608 402.36V371.704H616.952C616.952 379.835 620.182 387.632 625.931 393.381C631.68 399.131 639.477 402.36 647.608 402.36Z" fill="white"/>
<path d="M678.264 371.705H647.608V402.361C655.739 402.361 663.536 399.131 669.285 393.382C675.034 387.633 678.264 379.835 678.264 371.705Z" fill="white"/>
<path d="M800.888 402.36V371.704H770.232C770.232 379.835 773.462 387.632 779.211 393.381C784.96 399.131 792.758 402.36 800.888 402.36Z" fill="white"/>
<path d="M831.544 371.705H800.888V402.361H831.544V371.705Z" fill="white"/>
<path d="M908.184 402.361C916.649 402.361 923.512 395.498 923.512 387.033C923.512 378.567 916.649 371.705 908.184 371.705C899.719 371.705 892.856 378.567 892.856 387.033C892.856 395.498 899.719 402.361 908.184 402.361Z" fill="white"/>
<path d="M80.472 433.016C88.9375 433.016 95.8 426.154 95.8 417.688C95.8 409.223 88.9375 402.36 80.472 402.36C72.0066 402.36 65.144 409.223 65.144 417.688C65.144 426.154 72.0066 433.016 80.472 433.016Z" fill="white"/>
<path d="M218.424 433.017V402.361H203.096C199.031 402.361 195.132 403.976 192.258 406.85C189.383 409.725 187.768 413.623 187.768 417.689C187.768 421.754 189.383 425.653 192.258 428.527C195.132 431.402 199.031 433.017 203.096 433.017" fill="white"/>
<path d="M218.424 402.36V433.016H233.752C237.817 433.016 241.716 431.401 244.591 428.527C247.465 425.652 249.08 421.754 249.08 417.688C249.08 413.623 247.465 409.724 244.591 406.85C241.716 403.975 237.817 402.36 233.752 402.36" fill="white"/>
<path d="M310.392 433.017H341.048V417.689C341.048 413.623 339.433 409.725 336.559 406.85C333.684 403.976 329.785 402.361 325.72 402.361C321.655 402.361 317.756 403.976 314.882 406.85C312.007 409.725 310.392 413.623 310.392 417.689" fill="white"/>
<path d="M708.92 433.017V402.361H693.592C689.527 402.361 685.628 403.976 682.753 406.85C679.879 409.725 678.264 413.623 678.264 417.689C678.264 421.754 679.879 425.653 682.753 428.527C685.628 431.402 689.527 433.017 693.592 433.017" fill="white"/>
<path d="M708.92 402.36V433.016H739.576C739.576 424.886 736.346 417.088 730.597 411.339C724.848 405.59 717.05 402.36 708.92 402.36Z" fill="white"/>
<path d="M831.544 402.36H800.888V417.688C800.888 421.754 802.503 425.652 805.377 428.527C808.252 431.401 812.151 433.016 816.216 433.016C820.281 433.016 824.18 431.401 827.054 428.527C829.929 425.652 831.544 421.754 831.544 417.688" fill="white"/>
<path d="M877.528 433.016C885.994 433.016 892.856 426.154 892.856 417.688C892.856 409.223 885.994 402.36 877.528 402.36C869.063 402.36 862.2 409.223 862.2 417.688C862.2 426.154 869.063 433.016 877.528 433.016Z" fill="white"/>
<path d="M34.488 463.672H65.144V448.344C65.144 444.279 63.5291 440.38 60.6546 437.506C57.78 434.631 53.8813 433.016 49.816 433.016C45.7508 433.016 41.8521 434.631 38.9775 437.506C36.1029 440.38 34.488 444.279 34.488 448.344" fill="white"/>
<path d="M172.44 463.673C180.905 463.673 187.768 456.81 187.768 448.345C187.768 439.879 180.905 433.017 172.44 433.017C163.975 433.017 157.112 439.879 157.112 448.345C157.112 456.81 163.975 463.673 172.44 463.673Z" fill="white"/>
<path d="M279.736 463.672H310.392V433.016C302.262 433.016 294.464 436.246 288.715 441.995C282.966 447.744 279.736 455.542 279.736 463.672Z" fill="white"/>
<path d="M341.048 433.017H310.392V463.673C318.523 463.673 326.32 460.443 332.069 454.694C337.818 448.945 341.048 441.147 341.048 433.017Z" fill="white"/>
<path d="M739.576 433.017H708.92V463.673H739.576V433.017Z" fill="white"/>
<path d="M785.56 463.673C794.025 463.673 800.888 456.81 800.888 448.345C800.888 439.879 794.025 433.017 785.56 433.017C777.095 433.017 770.232 439.879 770.232 448.345C770.232 456.81 777.095 463.673 785.56 463.673Z" fill="white"/>
<path d="M846.872 463.673C855.337 463.673 862.2 456.81 862.2 448.345C862.2 439.879 855.337 433.017 846.872 433.017C838.407 433.017 831.544 439.879 831.544 448.345C831.544 456.81 838.407 463.673 846.872 463.673Z" fill="white"/>
<path d="M892.856 463.672H923.512V448.344C923.512 444.279 921.897 440.38 919.023 437.506C916.148 434.631 912.249 433.016 908.184 433.016C904.119 433.016 900.22 434.631 897.345 437.506C894.471 440.38 892.856 444.279 892.856 448.344" fill="white"/>
<path d="M65.144 463.672H34.488V494.328H65.144V463.672Z" fill="white"/>
<path d="M95.8 494.329H126.456V463.673C118.326 463.673 110.528 466.902 104.779 472.652C99.0299 478.401 95.8 486.198 95.8 494.329Z" fill="white"/>
<path d="M126.456 463.672V494.328H141.784C145.849 494.328 149.748 492.713 152.623 489.839C155.497 486.964 157.112 483.066 157.112 479C157.112 474.935 155.497 471.036 152.623 468.162C149.748 465.287 145.849 463.672 141.784 463.672" fill="white"/>
<path d="M187.768 494.329H218.424V463.673C210.294 463.673 202.496 466.902 196.747 472.652C190.998 478.401 187.768 486.198 187.768 494.329Z" fill="white"/>
<path d="M218.424 463.672V494.328H233.752C237.817 494.328 241.716 492.713 244.591 489.839C247.465 486.964 249.08 483.066 249.08 479C249.08 474.935 247.465 471.036 244.591 468.162C241.716 465.287 237.817 463.672 233.752 463.672" fill="white"/>
<path d="M310.392 463.672H279.736V479C279.736 483.066 281.351 486.964 284.226 489.839C287.1 492.713 290.999 494.328 295.064 494.328C299.129 494.328 303.028 492.713 305.903 489.839C308.777 486.964 310.392 483.066 310.392 479" fill="white"/>
<path d="M616.952 494.329H647.608V463.673C639.478 463.673 631.68 466.902 625.931 472.652C620.182 478.401 616.952 486.198 616.952 494.329Z" fill="white"/>
<path d="M647.608 463.672V494.328H662.936C667.001 494.328 670.9 492.713 673.774 489.839C676.649 486.964 678.264 483.066 678.264 479C678.264 474.935 676.649 471.036 673.774 468.162C670.9 465.287 667.001 463.672 662.936 463.672" fill="white"/>
<path d="M739.576 463.672H708.92V494.328H739.576V463.672Z" fill="white"/>
<path d="M739.576 463.672V494.328H754.904C758.969 494.328 762.868 492.713 765.743 489.839C768.617 486.964 770.232 483.066 770.232 479C770.232 474.935 768.617 471.036 765.743 468.162C762.868 465.287 758.969 463.672 754.904 463.672" fill="white"/>
<path d="M800.888 494.329H831.544V479.001C831.544 474.935 829.929 471.037 827.055 468.162C824.18 465.288 820.281 463.673 816.216 463.673C812.151 463.673 808.252 465.288 805.378 468.162C802.503 471.037 800.888 474.935 800.888 479.001" fill="white"/>
<path d="M923.512 463.672H892.856V479C892.856 483.066 894.471 486.964 897.346 489.839C900.22 492.713 904.119 494.328 908.184 494.328C912.249 494.328 916.148 492.713 919.023 489.839C921.897 486.964 923.512 483.066 923.512 479" fill="white"/>
<path d="M65.144 494.329H34.488V524.985H65.144V494.329Z" fill="white"/>
<path d="M95.8 494.329H65.144V524.985H95.8V494.329Z" fill="white"/>
<path d="M126.456 494.329H95.8001V524.985C103.931 524.985 111.728 521.755 117.477 516.006C123.226 510.257 126.456 502.459 126.456 494.329Z" fill="white"/>
<path d="M187.768 524.984V494.328H172.44C168.375 494.328 164.476 495.943 161.602 498.818C158.727 501.692 157.112 505.591 157.112 509.656C157.112 513.722 158.727 517.62 161.602 520.495C164.476 523.369 168.375 524.984 172.44 524.984" fill="white"/>
<path d="M218.424 494.329H187.768V524.985C195.899 524.985 203.696 521.755 209.445 516.006C215.194 510.257 218.424 502.459 218.424 494.329Z" fill="white"/>
<path d="M264.408 524.985C272.873 524.985 279.736 518.122 279.736 509.657C279.736 501.191 272.873 494.329 264.408 494.329C255.943 494.329 249.08 501.191 249.08 509.657C249.08 518.122 255.943 524.985 264.408 524.985Z" fill="white"/>
<path d="M310.392 524.984H341.048V509.656C341.048 505.591 339.433 501.692 336.559 498.818C333.684 495.943 329.785 494.328 325.72 494.328C321.655 494.328 317.756 495.943 314.882 498.818C312.007 501.692 310.392 505.591 310.392 509.656" fill="white"/>
<path d="M647.608 494.329H616.952V509.657C616.952 513.722 618.567 517.621 621.441 520.495C624.316 523.37 628.215 524.985 632.28 524.985C636.345 524.985 640.244 523.37 643.118 520.495C645.993 517.621 647.608 513.722 647.608 509.657" fill="white"/>
<path d="M739.576 494.329H708.92V509.657C708.92 513.722 710.535 517.621 713.41 520.495C716.284 523.37 720.183 524.985 724.248 524.985C728.313 524.985 732.212 523.37 735.087 520.495C737.961 517.621 739.576 513.722 739.576 509.657" fill="white"/>
<path d="M800.888 524.984V494.328H785.56C781.495 494.328 777.596 495.943 774.722 498.818C771.847 501.692 770.232 505.591 770.232 509.656C770.232 513.722 771.847 517.62 774.722 520.495C777.596 523.369 781.495 524.984 785.56 524.984" fill="white"/>
<path d="M831.544 494.329H800.888V524.985H831.544V494.329Z" fill="white"/>
<path d="M831.544 494.329V524.985H846.872C850.937 524.985 854.836 523.37 857.71 520.495C860.585 517.621 862.2 513.722 862.2 509.657C862.2 505.591 860.585 501.693 857.71 498.818C854.836 495.944 850.937 494.329 846.872 494.329" fill="white"/>
<path d="M65.144 524.984H34.488V555.64H65.144V524.984Z" fill="white"/>
<path d="M141.784 555.64C150.249 555.64 157.112 548.778 157.112 540.312C157.112 531.847 150.249 524.984 141.784 524.984C133.319 524.984 126.456 531.847 126.456 540.312C126.456 548.778 133.319 555.64 141.784 555.64Z" fill="white"/>
<path d="M233.752 555.64C242.217 555.64 249.08 548.778 249.08 540.312C249.08 531.847 242.217 524.984 233.752 524.984C225.287 524.984 218.424 531.847 218.424 540.312C218.424 548.778 225.287 555.64 233.752 555.64Z" fill="white"/>
<path d="M310.392 555.641V524.985H295.064C290.999 524.985 287.1 526.6 284.226 529.474C281.351 532.349 279.736 536.247 279.736 540.313C279.736 544.378 281.351 548.277 284.226 551.151C287.1 554.026 290.999 555.641 295.064 555.641" fill="white"/>
<path d="M341.048 524.984H310.392V555.64H341.048V524.984Z" fill="white"/>
<path d="M693.592 555.64C702.058 555.64 708.92 548.778 708.92 540.312C708.92 531.847 702.058 524.984 693.592 524.984C685.127 524.984 678.264 531.847 678.264 540.312C678.264 548.778 685.127 555.64 693.592 555.64Z" fill="white"/>
<path d="M754.904 555.64C763.37 555.64 770.232 548.778 770.232 540.312C770.232 531.847 763.37 524.984 754.904 524.984C746.439 524.984 739.576 531.847 739.576 540.312C739.576 548.778 746.439 555.64 754.904 555.64Z" fill="white"/>
<path d="M831.544 524.984H800.888V540.312C800.888 544.378 802.503 548.276 805.377 551.151C808.252 554.025 812.151 555.64 816.216 555.64C820.281 555.64 824.18 554.025 827.054 551.151C829.929 548.276 831.544 544.378 831.544 540.312" fill="white"/>
<path d="M877.528 555.64C885.994 555.64 892.856 548.778 892.856 540.312C892.856 531.847 885.994 524.984 877.528 524.984C869.063 524.984 862.2 531.847 862.2 540.312C862.2 548.778 869.063 555.64 877.528 555.64Z" fill="white"/>
<path d="M65.144 555.641H34.488V586.297H65.144V555.641Z" fill="white"/>
<path d="M157.112 586.296H187.768V570.968C187.768 566.903 186.153 563.004 183.279 560.13C180.404 557.255 176.505 555.64 172.44 555.64C168.375 555.64 164.476 557.255 161.602 560.13C158.727 563.004 157.112 566.903 157.112 570.968" fill="white"/>
<path d="M341.048 555.641H310.392V586.297H341.048V555.641Z" fill="white"/>
<path d="M724.248 586.297C732.713 586.297 739.576 579.434 739.576 570.969C739.576 562.503 732.713 555.641 724.248 555.641C715.783 555.641 708.92 562.503 708.92 570.969C708.92 579.434 715.783 586.297 724.248 586.297Z" fill="white"/>
<path d="M785.56 586.297C794.025 586.297 800.888 579.434 800.888 570.969C800.888 562.503 794.025 555.641 785.56 555.641C777.095 555.641 770.232 562.503 770.232 570.969C770.232 579.434 777.095 586.297 785.56 586.297Z" fill="white"/>
<path d="M65.144 586.296H34.488V616.952H65.144V586.296Z" fill="white"/>
<path d="M65.144 586.296V616.952H95.8C95.8 608.822 92.5702 601.024 86.8211 595.275C81.072 589.526 73.2745 586.296 65.144 586.296Z" fill="white"/>
<path d="M157.112 616.953V586.297H141.784C137.719 586.297 133.82 587.912 130.946 590.786C128.071 593.661 126.456 597.559 126.456 601.625C126.456 605.69 128.071 609.589 130.946 612.463C133.82 615.338 137.719 616.953 141.784 616.953" fill="white"/>
<path d="M187.768 586.296H157.112V616.952H187.768V586.296Z" fill="white"/>
<path d="M218.424 586.296H187.768V616.952H218.424V586.296Z" fill="white"/>
<path d="M249.08 586.296H218.424V616.952H249.08V586.296Z" fill="white"/>
<path d="M249.08 586.296V616.952H279.736C279.736 608.822 276.506 601.024 270.757 595.275C265.008 589.526 257.211 586.296 249.08 586.296Z" fill="white"/>
<path d="M341.048 586.296H310.392V616.952H341.048V586.296Z" fill="white"/>
<path d="M616.952 616.953H647.608V601.625C647.608 597.559 645.993 593.661 643.119 590.786C640.244 587.912 636.345 586.297 632.28 586.297C628.215 586.297 624.316 587.912 621.442 590.786C618.567 593.661 616.952 597.559 616.952 601.625" fill="white"/>
<path d="M739.576 616.953H770.232V601.625C770.232 597.559 768.617 593.661 765.743 590.786C762.868 587.912 758.969 586.297 754.904 586.297C750.839 586.297 746.94 587.912 744.066 590.786C741.191 593.661 739.576 597.559 739.576 601.625" fill="white"/>
<path d="M892.856 616.953H923.512V601.625C923.512 597.559 921.897 593.661 919.023 590.786C916.148 587.912 912.249 586.297 908.184 586.297C904.119 586.297 900.22 587.912 897.345 590.786C894.471 593.661 892.856 597.559 892.856 601.625" fill="white"/>
<path d="M65.144 616.953H34.488V647.609H65.144V616.953Z" fill="white"/>
<path d="M95.8 616.953H65.144V647.609H95.8V616.953Z" fill="white"/>
<path d="M187.768 616.953H157.112V647.609H187.768V616.953Z" fill="white"/>
<path d="M218.424 616.953H187.768V647.609H218.424V616.953Z" fill="white"/>
<path d="M279.736 616.953H249.08V647.609H279.736V616.953Z" fill="white"/>
<path d="M341.048 616.953H310.392V647.609H341.048V616.953Z" fill="white"/>
<path d="M647.608 616.953H616.952V647.609H647.608V616.953Z" fill="white"/>
<path d="M678.264 616.953H647.608V647.609H678.264V616.953Z" fill="white"/>
<path d="M708.92 616.953H678.264V647.609H708.92V616.953Z" fill="white"/>
<path d="M739.576 616.953H708.92V647.609H739.576V616.953Z" fill="white"/>
<path d="M770.232 616.953H739.576V647.609H770.232V616.953Z" fill="white"/>
<path d="M800.888 647.608H831.544V616.952C823.414 616.952 815.616 620.182 809.867 625.931C804.118 631.68 800.888 639.478 800.888 647.608Z" fill="white"/>
<path d="M862.2 616.953H831.544V647.609H862.2V616.953Z" fill="white"/>
<path d="M892.856 616.953H862.2V647.609H892.856V616.953Z" fill="white"/>
<path d="M923.512 616.953H892.856V647.609H923.512V616.953Z" fill="white"/>
<path d="M65.144 678.265V647.609H34.488C34.488 655.739 37.7179 663.537 43.467 669.286C49.2161 675.035 57.0136 678.265 65.144 678.265Z" fill="white"/>
<path d="M95.8 647.608H65.144V678.264C73.2745 678.264 81.072 675.035 86.8211 669.285C92.5703 663.536 95.8 655.739 95.8 647.608Z" fill="white"/>
<path d="M187.768 678.265V647.609H157.112C157.112 655.739 160.342 663.537 166.091 669.286C171.84 675.035 179.638 678.265 187.768 678.265Z" fill="white"/>
<path d="M218.424 647.608H187.768V678.264H218.424V647.608Z" fill="white"/>
<path d="M249.08 647.608H218.424V678.264H249.08V647.608Z" fill="white"/>
<path d="M279.736 647.608H249.08V678.264H279.736V647.608Z" fill="white"/>
<path d="M310.392 647.608H279.736V678.264H310.392V647.608Z" fill="white"/>
<path d="M341.048 647.608H310.392V678.264H341.048V647.608Z" fill="white"/>
<path d="M371.704 647.608H341.048V678.264H371.704V647.608Z" fill="white"/>
<path d="M402.36 647.608H371.704V678.264H402.36V647.608Z" fill="white"/>
<path d="M402.36 647.608V678.264H433.016C433.016 670.134 429.786 662.336 424.037 656.587C418.288 650.838 410.49 647.608 402.36 647.608Z" fill="white"/>
<path d="M479 678.264C487.465 678.264 494.328 671.402 494.328 662.936C494.328 654.471 487.465 647.608 479 647.608C470.534 647.608 463.672 654.471 463.672 662.936C463.672 671.402 470.534 678.264 479 678.264Z" fill="white"/>
<path d="M555.64 678.265V647.609H540.312C536.247 647.609 532.348 649.224 529.474 652.098C526.599 654.973 524.984 658.871 524.984 662.937C524.984 667.002 526.599 670.901 529.474 673.775C532.348 676.65 536.247 678.265 540.312 678.265" fill="white"/>
<path d="M555.64 647.608V678.264H586.296C586.296 670.134 583.066 662.336 577.317 656.587C571.568 650.838 563.771 647.608 555.64 647.608Z" fill="white"/>
<path d="M647.608 647.608H616.952V678.264H647.608V647.608Z" fill="white"/>
<path d="M678.264 647.608H647.608V678.264H678.264V647.608Z" fill="white"/>
<path d="M708.92 647.608H678.264V678.264H708.92V647.608Z" fill="white"/>
<path d="M739.576 647.608H708.92V678.264H739.576V647.608Z" fill="white"/>
<path d="M770.232 647.608H739.576V678.264H770.232V647.608Z" fill="white"/>
<path d="M800.888 647.608H770.232V678.264H800.888V647.608Z" fill="white"/>
<path d="M831.544 647.608H800.888V678.264H831.544V647.608Z" fill="white"/>
<path d="M862.2 647.608H831.544V678.264H862.2V647.608Z" fill="white"/>
<path d="M923.512 647.608H892.856V662.936C892.856 667.002 894.471 670.9 897.346 673.775C900.22 676.649 904.119 678.264 908.184 678.264C912.249 678.264 916.148 676.649 919.023 673.775C921.897 670.9 923.512 667.002 923.512 662.936" fill="white"/>
<path d="M310.392 678.265H279.736V693.593C279.736 697.658 281.351 701.557 284.226 704.431C287.1 707.306 290.999 708.921 295.064 708.921C299.129 708.921 303.028 707.306 305.903 704.431C308.777 701.557 310.392 697.658 310.392 693.593" fill="white"/>
<path d="M402.36 678.265H371.704V708.921H402.36V678.265Z" fill="white"/>
<path d="M433.016 678.265H402.36V708.921H433.016V678.265Z" fill="white"/>
<path d="M433.016 678.265V708.921H463.672C463.672 700.79 460.442 692.993 454.693 687.244C448.944 681.494 441.147 678.265 433.016 678.265Z" fill="white"/>
<path d="M494.328 708.92H524.984V693.592C524.984 689.527 523.369 685.628 520.495 682.754C517.62 679.879 513.721 678.264 509.656 678.264C505.591 678.264 501.692 679.879 498.818 682.754C495.943 685.628 494.328 689.527 494.328 693.592" fill="white"/>
<path d="M586.296 678.265H555.64V693.593C555.64 697.658 557.255 701.557 560.129 704.431C563.004 707.306 566.903 708.921 570.968 708.921C575.033 708.921 578.932 707.306 581.806 704.431C584.681 701.557 586.296 697.658 586.296 693.593" fill="white"/>
<path d="M647.608 678.265H616.952V708.921H647.608V678.265Z" fill="white"/>
<path d="M678.264 678.265H647.608V708.921H678.264V678.265Z" fill="white"/>
<path d="M800.888 678.265H770.232V708.921H800.888V678.265Z" fill="white"/>
<path d="M831.544 678.265H800.888V708.921H831.544V678.265Z" fill="white"/>
<path d="M862.2 678.265H831.544V708.921H862.2V678.265Z" fill="white"/>
<path d="M862.2 678.265V708.921H877.528C881.593 708.921 885.492 707.306 888.367 704.431C891.241 701.557 892.856 697.658 892.856 693.593C892.856 689.527 891.241 685.629 888.367 682.754C885.492 679.88 881.593 678.265 877.528 678.265" fill="white"/>
<path d="M341.048 739.577V708.921H325.72C321.655 708.921 317.756 710.536 314.882 713.41C312.007 716.285 310.392 720.183 310.392 724.249C310.392 728.314 312.007 732.213 314.882 735.087C317.756 737.962 321.655 739.577 325.72 739.577" fill="white"/>
<path d="M371.704 708.92H341.048V739.576H371.704V708.92Z" fill="white"/>
<path d="M402.36 708.92H371.704V739.576H402.36V708.92Z" fill="white"/>
<path d="M463.672 708.92H433.016V739.576H463.672V708.92Z" fill="white"/>
<path d="M494.328 708.92H463.672V739.576H494.328V708.92Z" fill="white"/>
<path d="M524.984 708.92H494.328V739.576H524.984V708.92Z" fill="white"/>
<path d="M524.984 708.92V739.576H540.312C544.377 739.576 548.276 737.962 551.15 735.087C554.025 732.212 555.64 728.314 555.64 724.248C555.64 720.183 554.025 716.284 551.15 713.41C548.276 710.535 544.377 708.92 540.312 708.92" fill="white"/>
<path d="M647.608 708.92H616.952V739.576H647.608V708.92Z" fill="white"/>
<path d="M678.264 708.92H647.608V739.576H678.264V708.92Z" fill="white"/>
<path d="M724.248 739.576C732.713 739.576 739.576 732.714 739.576 724.248C739.576 715.783 732.713 708.92 724.248 708.92C715.783 708.92 708.92 715.783 708.92 724.248C708.92 732.714 715.783 739.576 724.248 739.576Z" fill="white"/>
<path d="M800.888 708.92H770.232V739.576H800.888V708.92Z" fill="white"/>
<path d="M862.2 708.92H831.544V724.248C831.544 728.314 833.159 732.212 836.034 735.087C838.908 737.962 842.807 739.576 846.872 739.576C850.937 739.576 854.836 737.962 857.711 735.087C860.585 732.212 862.2 728.314 862.2 724.248" fill="white"/>
<path d="M279.736 770.232H310.392V754.904C310.392 750.839 308.777 746.94 305.903 744.066C303.028 741.191 299.129 739.576 295.064 739.576C290.999 739.576 287.1 741.191 284.226 744.066C281.351 746.94 279.736 750.839 279.736 754.904" fill="white"/>
<path d="M402.36 739.577H371.704V754.905C371.704 758.97 373.319 762.869 376.193 765.743C379.068 768.618 382.967 770.233 387.032 770.233C391.097 770.233 394.996 768.618 397.87 765.743C400.745 762.869 402.36 758.97 402.36 754.905" fill="white"/>
<path d="M463.672 739.577H433.016V770.233H463.672V739.577Z" fill="white"/>
<path d="M494.328 739.577H463.672V770.233H494.328V739.577Z" fill="white"/>
<path d="M616.952 770.232V739.576H601.624C597.559 739.576 593.66 741.191 590.786 744.066C587.911 746.94 586.296 750.839 586.296 754.904C586.296 758.97 587.911 762.868 590.786 765.743C593.66 768.618 597.559 770.232 601.624 770.232" fill="white"/>
<path d="M647.608 739.577H616.952V770.233H647.608V739.577Z" fill="white"/>
<path d="M678.264 739.577H647.608V770.233H678.264V739.577Z" fill="white"/>
<path d="M800.888 739.577H770.232V770.233H800.888V739.577Z" fill="white"/>
<path d="M800.888 739.577V770.233H816.216C820.281 770.233 824.18 768.618 827.055 765.743C829.929 762.869 831.544 758.97 831.544 754.905C831.544 750.839 829.929 746.941 827.055 744.066C824.18 741.192 820.281 739.577 816.216 739.577" fill="white"/>
<path d="M892.856 770.232H923.512V754.904C923.512 750.839 921.897 746.94 919.023 744.066C916.148 741.191 912.249 739.576 908.184 739.576C904.119 739.576 900.22 741.191 897.345 744.066C894.471 746.94 892.856 750.839 892.856 754.904" fill="white"/>
<path d="M310.392 770.232H279.736V800.888H310.392V770.232Z" fill="white"/>
<path d="M341.048 770.232H310.392V800.888H341.048V770.232Z" fill="white"/>
<path d="M341.048 770.232V800.888H371.704C371.704 792.758 368.474 784.96 362.725 779.211C356.976 773.462 349.179 770.232 341.048 770.232Z" fill="white"/>
<path d="M463.672 800.889V770.233H433.016C433.016 778.363 436.246 786.161 441.995 791.91C447.744 797.659 455.541 800.889 463.672 800.889Z" fill="white"/>
<path d="M494.328 770.232H463.672V800.888H494.328V770.232Z" fill="white"/>
<path d="M494.328 770.232V800.888H509.656C513.721 800.888 517.62 799.274 520.495 796.399C523.369 793.524 524.984 789.626 524.984 785.56C524.984 781.495 523.369 777.596 520.495 774.722C517.62 771.847 513.721 770.232 509.656 770.232" fill="white"/>
<path d="M570.968 800.888C579.434 800.888 586.296 794.026 586.296 785.56C586.296 777.095 579.434 770.232 570.968 770.232C562.503 770.232 555.64 777.095 555.64 785.56C555.64 794.026 562.503 800.888 570.968 800.888Z" fill="white"/>
<path d="M647.608 800.889V770.233H616.952C616.952 778.363 620.182 786.161 625.931 791.91C631.68 797.659 639.477 800.889 647.608 800.889Z" fill="white"/>
<path d="M678.264 770.232H647.608V800.888H678.264V770.232Z" fill="white"/>
<path d="M708.92 770.232H678.264V800.888H708.92V770.232Z" fill="white"/>
<path d="M739.576 770.232H708.92V800.888H739.576V770.232Z" fill="white"/>
<path d="M770.232 770.232H739.576V800.888H770.232V770.232Z" fill="white"/>
<path d="M800.888 770.232H770.232V800.888C778.363 800.888 786.16 797.659 791.909 791.91C797.658 786.16 800.888 778.363 800.888 770.232Z" fill="white"/>
<path d="M923.512 770.232H892.856V785.56C892.856 789.626 894.471 793.524 897.346 796.399C900.22 799.274 904.119 800.888 908.184 800.888C912.249 800.888 916.148 799.274 919.023 796.399C921.897 793.524 923.512 789.626 923.512 785.56" fill="white"/>
<path d="M310.392 800.889H279.736V816.217C279.736 820.282 281.351 824.181 284.226 827.055C287.1 829.93 290.999 831.545 295.064 831.545C299.129 831.545 303.028 829.93 305.903 827.055C308.777 824.181 310.392 820.282 310.392 816.217" fill="white"/>
<path d="M371.704 800.889H341.048V816.217C341.048 820.282 342.663 824.181 345.538 827.055C348.412 829.93 352.311 831.545 356.376 831.545C360.441 831.545 364.34 829.93 367.215 827.055C370.089 824.181 371.704 820.282 371.704 816.217" fill="white"/>
<path d="M494.328 800.889H463.672V831.545H494.328V800.889Z" fill="white"/>
<path d="M586.296 831.544H616.952V816.216C616.952 812.151 615.337 808.252 612.462 805.378C609.588 802.503 605.689 800.888 601.624 800.888C597.559 800.888 593.66 802.503 590.785 805.378C587.911 808.252 586.296 812.151 586.296 816.216" fill="white"/>
<path d="M770.232 800.889H739.576V831.545H770.232V800.889Z" fill="white"/>
<path d="M862.2 831.544H892.856V816.216C892.856 812.151 891.241 808.252 888.367 805.378C885.492 802.503 881.593 800.888 877.528 800.888C873.463 800.888 869.564 802.503 866.69 805.378C863.815 808.252 862.2 812.151 862.2 816.216" fill="white"/>
<path d="M387.032 862.2C395.498 862.2 402.36 855.338 402.36 846.872C402.36 838.407 395.498 831.544 387.032 831.544C378.567 831.544 371.704 838.407 371.704 846.872C371.704 855.338 378.567 862.2 387.032 862.2Z" fill="white"/>
<path d="M433.016 862.201H463.672V831.545C455.542 831.545 447.744 834.775 441.995 840.524C436.246 846.273 433.016 854.07 433.016 862.201Z" fill="white"/>
<path d="M494.328 831.544H463.672V862.2H494.328V831.544Z" fill="white"/>
<path d="M494.328 831.544V862.2H509.656C513.721 862.2 517.62 860.586 520.495 857.711C523.369 854.836 524.984 850.938 524.984 846.872C524.984 842.807 523.369 838.908 520.495 836.034C517.62 833.159 513.721 831.544 509.656 831.544" fill="white"/>
<path d="M586.296 862.201V831.545H570.968C566.903 831.545 563.004 833.16 560.129 836.034C557.255 838.909 555.64 842.807 555.64 846.873C555.64 850.938 557.255 854.837 560.129 857.711C563.004 860.586 566.903 862.201 570.968 862.201" fill="white"/>
<path d="M616.952 831.544H586.296V862.2H616.952V831.544Z" fill="white"/>
<path d="M647.608 862.201H678.264V831.545C670.133 831.545 662.336 834.774 656.587 840.524C650.838 846.273 647.608 854.07 647.608 862.201Z" fill="white"/>
<path d="M678.264 831.544V862.2H708.92C708.92 854.07 705.69 846.272 699.941 840.523C694.192 834.774 686.395 831.544 678.264 831.544Z" fill="white"/>
<path d="M770.232 862.201V831.545H739.576C739.576 839.675 742.806 847.473 748.555 853.222C754.304 858.971 762.101 862.201 770.232 862.201Z" fill="white"/>
<path d="M800.888 831.544H770.232V862.2H800.888V831.544Z" fill="white"/>
<path d="M831.544 831.544H800.888V862.2H831.544V831.544Z" fill="white"/>
<path d="M862.2 831.544H831.544V862.2H862.2V831.544Z" fill="white"/>
<path d="M892.856 831.544H862.2V862.2H892.856V831.544Z" fill="white"/>
<path d="M892.856 831.544V862.2H923.512C923.512 854.07 920.282 846.272 914.533 840.523C908.784 834.774 900.986 831.544 892.856 831.544Z" fill="white"/>
<path d="M310.392 892.856V862.2H295.064C290.999 862.2 287.1 863.815 284.226 866.69C281.351 869.564 279.736 873.463 279.736 877.528C279.736 881.594 281.351 885.492 284.226 888.367C287.1 891.242 290.999 892.856 295.064 892.856" fill="white"/>
<path d="M341.048 862.201H310.392V892.857H341.048V862.201Z" fill="white"/>
<path d="M341.048 862.201V892.857H371.704C371.704 884.726 368.474 876.929 362.725 871.18C356.976 865.43 349.179 862.201 341.048 862.201Z" fill="white"/>
<path d="M463.672 892.856V862.2H433.016C433.016 870.331 436.246 878.128 441.995 883.878C447.744 889.627 455.541 892.856 463.672 892.856Z" fill="white"/>
<path d="M494.328 862.201H463.672V892.857H494.328V862.201Z" fill="white"/>
<path d="M540.312 892.857C548.777 892.857 555.64 885.994 555.64 877.529C555.64 869.063 548.777 862.201 540.312 862.201C531.846 862.201 524.984 869.063 524.984 877.529C524.984 885.994 531.846 892.857 540.312 892.857Z" fill="white"/>
<path d="M616.952 862.201H586.296V877.529C586.296 881.594 587.911 885.493 590.786 888.367C593.66 891.242 597.559 892.857 601.624 892.857C605.689 892.857 609.588 891.242 612.463 888.367C615.337 885.493 616.952 881.594 616.952 877.529" fill="white"/>
<path d="M678.264 892.856V862.2H647.608C647.608 870.331 650.838 878.128 656.587 883.878C662.336 889.627 670.134 892.856 678.264 892.856Z" fill="white"/>
<path d="M708.92 862.201H678.264V892.857H708.92V862.201Z" fill="white"/>
<path d="M800.888 862.201H770.232V892.857H800.888V862.201Z" fill="white"/>
<path d="M831.544 862.201H800.888V892.857H831.544V862.201Z" fill="white"/>
<path d="M862.2 862.201H831.544V892.857C839.675 892.857 847.472 889.627 853.221 883.878C858.97 878.129 862.2 870.331 862.2 862.201Z" fill="white"/>
<path d="M923.512 862.201H892.856V877.529C892.856 881.594 894.471 885.493 897.346 888.367C900.22 891.242 904.119 892.857 908.184 892.857C912.249 892.857 916.148 891.242 919.023 888.367C921.897 885.493 923.512 881.594 923.512 877.529" fill="white"/>
<path d="M341.048 923.513V892.857H310.392C310.392 900.987 313.622 908.785 319.371 914.534C325.12 920.283 332.918 923.513 341.048 923.513Z" fill="white"/>
<path d="M371.704 892.856H341.048V923.512C349.179 923.512 356.976 920.283 362.725 914.534C368.474 908.784 371.704 900.987 371.704 892.856Z" fill="white"/>
<path d="M417.688 923.512C426.153 923.512 433.016 916.65 433.016 908.184C433.016 899.719 426.153 892.856 417.688 892.856C409.222 892.856 402.36 899.719 402.36 908.184C402.36 916.65 409.222 923.512 417.688 923.512Z" fill="white"/>
<path d="M494.328 923.513V892.857H463.672C463.672 900.987 466.902 908.785 472.651 914.534C478.4 920.283 486.198 923.513 494.328 923.513Z" fill="white"/>
<path d="M494.328 892.856V923.512H509.656C513.721 923.512 517.62 921.898 520.495 919.023C523.369 916.148 524.984 912.25 524.984 908.184C524.984 904.119 523.369 900.22 520.495 897.346C517.62 894.471 513.721 892.856 509.656 892.856" fill="white"/>
<path d="M632.28 923.512C640.746 923.512 647.608 916.65 647.608 908.184C647.608 899.719 640.746 892.856 632.28 892.856C623.815 892.856 616.952 899.719 616.952 908.184C616.952 916.65 623.815 923.512 632.28 923.512Z" fill="white"/>
<path d="M708.92 923.513V892.857H678.264C678.264 900.987 681.494 908.785 687.243 914.534C692.992 920.283 700.789 923.513 708.92 923.513Z" fill="white"/>
<path d="M739.576 892.856H708.92V923.512H739.576V892.856Z" fill="white"/>
<path d="M770.232 892.856H739.576V923.512H770.232V892.856Z" fill="white"/>
<path d="M800.888 892.856H770.232V923.512C778.363 923.512 786.16 920.283 791.909 914.534C797.658 908.784 800.888 900.987 800.888 892.856Z" fill="white"/>
</mask>
<g mask="url(#mask6_23_4444)">
<path d="M958 0.000488281H0V958H958V0.000488281Z" fill="white"/>
</g>
<path d="M574.345 478.65C576.592 478.682 577.688 476.739 577.449 474.227C577.746 465.497 577.233 449.971 577.041 447.96C576.8 445.447 575.031 444.251 572.306 444.213C569.526 444.173 473.102 444.623 470.439 445.07C467.653 445.538 467.319 447.685 467.295 449.549C467.273 451.221 467.06 474.082 467.342 475.632C467.624 477.183 467.761 478.992 470.739 478.964C472.129 478.951 572.097 478.618 574.345 478.65Z" fill="white"/>
<path d="M364.007 361.186C366.108 408.493 383.351 547.163 534.18 605.615C535.191 605.618 536.567 606.069 537.471 604.868C539.976 601.54 544.101 593.984 544.85 592.5C545.339 591.53 546.761 590.602 540.823 586.415C535.776 582.856 502.811 567.551 472.722 527.494C443.006 487.932 425.501 429.188 425.394 386.947C470.075 387.737 558.713 387.667 574.148 386.963C575.137 386.652 577.439 386.72 577.453 382.169C577.724 377.363 577.27 361.568 577.285 357.633C577.298 354.091 575.168 352.314 571.485 352.301C567.943 352.289 377.644 352.382 368.844 352.35C363.28 352.329 363.964 360.22 364.007 361.186Z" fill="white"/>
</svg>
